<?xml version="1.0" encoding="UTF-8" standalone="no"?>
<!-- Created with Inkscape (http://www.inkscape.org/) -->

<svg
   xmlns:dc="http://purl.org/dc/elements/1.1/"
   xmlns:cc="http://creativecommons.org/ns#"
   xmlns:rdf="http://www.w3.org/1999/02/22-rdf-syntax-ns#"
   xmlns:svg="http://www.w3.org/2000/svg"
   xmlns="http://www.w3.org/2000/svg"
   xmlns:sodipodi="http://sodipodi.sourceforge.net/DTD/sodipodi-0.dtd"
   xmlns:inkscape="http://www.inkscape.org/namespaces/inkscape"
   version="1.1"
   id="svg2"
   width="171.27034"
   height="243.13852"
   viewBox="0 0 171.27034 243.13852"
   sodipodi:docname="allogo2.svg"
   inkscape:version="0.92.4 (5da689c313, 2019-01-14)">
  <metadata
     id="metadata8">
    <rdf:RDF>
      <cc:Work
         rdf:about="">
        <dc:format>image/svg+xml</dc:format>
        <dc:type
           rdf:resource="http://purl.org/dc/dcmitype/StillImage" />
        <dc:title></dc:title>
      </cc:Work>
    </rdf:RDF>
  </metadata>
  <defs
     id="defs6" />
  <sodipodi:namedview
     pagecolor="#ffffff"
     bordercolor="#666666"
     borderopacity="1"
     objecttolerance="10"
     gridtolerance="10"
     guidetolerance="10"
     inkscape:pageopacity="0"
     inkscape:pageshadow="2"
     inkscape:window-width="1920"
     inkscape:window-height="1016"
     id="namedview4"
     showgrid="false"
     fit-margin-top="0"
     fit-margin-left="0"
     fit-margin-right="0"
     fit-margin-bottom="0"
     inkscape:zoom="2.7245257"
     inkscape:cx="144.19544"
     inkscape:cy="140.93897"
     inkscape:window-x="0"
     inkscape:window-y="27"
     inkscape:window-maximized="1"
     inkscape:current-layer="svg2" />
  <g
     id="g845"
     transform="translate(85.822799,-7.3033272)">
    <path
       style="fill:#b49dc7"
       d="m -55.283777,247.86105 c -0.930048,-1.41943 -1.434987,-3.24794 -1.122086,-4.06334 0.3129,-0.81541 -0.102905,-2.78171 -0.924013,-4.36956 -1.68796,-3.26415 -1.965042,-8.1132 -0.544921,-9.53631 1.131765,-1.13415 -1.506992,-21.76572 -3.234441,-25.28902 -0.950916,-1.93949 -0.853584,-2.50311 0.569817,-3.29969 1.48971,-0.83368 1.712297,-2.70556 1.683903,-14.16098 -0.01799,-7.26017 -0.502413,-16.35031 -1.076484,-20.20031 -0.574071,-3.85 -1.205329,-13.18352 -1.402796,-20.74115 -0.197467,-7.55764 -0.614509,-14.15453 -0.926761,-14.65976 -1.148628,-1.85852 0.734732,-4.08696 4.288253,-5.07398 4.728864,-1.31348 11.855105,-1.3121 12.667542,0.002 0.349288,0.56516 0.735844,5.05286 0.859014,9.97266 0.189449,7.56723 0.552609,9.29588 2.357631,11.22244 1.576731,1.68289 1.885313,2.71928 1.182173,3.97041 -0.586919,1.04433 -0.604532,3.23736 -0.04596,5.72336 0.739469,3.29114 0.528856,4.79166 -1.148382,8.18166 -1.32956,2.68728 -1.730805,4.58691 -1.137718,5.38637 4.443163,5.98917 4.456096,6.03225 3.431859,11.43303 -0.68567,3.61552 -0.665323,5.86858 0.06533,7.23382 0.803048,1.50051 0.680769,2.56336 -0.502709,4.36958 -1.243026,1.8971 -1.338618,2.96044 -0.465933,5.18294 0.603868,1.53789 1.272934,6.98322 1.486815,12.10072 0.21388,5.11751 0.902408,10.26411 1.530061,11.43689 1.336872,2.49797 0.365962,22.45698 -1.183229,24.32364 -0.856057,1.03194 -10.300525,3.43537 -13.497759,3.43537 -0.670014,0 -1.979157,-1.16135 -2.909206,-2.58079 z m 70.604378,1.51019 c -1.83851,-0.73632 -2.22679,-1.46099 -1.76617,-3.29626 0.40687,-1.6211 -0.0288,-2.91286 -1.4015,-4.1551 -1.736018,-1.57108 -1.809585,-2.00664 -0.57264,-3.39035 0.7806,-0.87323 2.21324,-6.89891 3.18363,-13.3904 1.52307,-10.18858 1.58378,-12.50729 0.44397,-16.95461 -0.72622,-2.83354 -1.41482,-7.19732 -1.53023,-9.69729 -0.20707,-4.48544 -1.34531,-7.93848 -3.7018929,-11.23029 -0.94952,-1.32634 -0.921752,-2.21641 0.1304879,-4.18254 0.735183,-1.3737 1.059199,-3.22079 0.720036,-4.10463 -0.339164,-0.88385 -0.06889,-2.48412 0.600609,-3.55616 0.99712,-1.59664 0.87777,-2.57961 -0.659897,-5.43487 -1.5173759,-2.8176 -1.6393069,-3.77232 -0.636147,-4.98106 1.554354,-1.87289 2.214054,-14.37395 0.88917,-16.84952 -0.710257,-1.32713 -0.54679,-2.50918 0.586104,-4.23819 1.97891,-3.0202 2.00596,-5.86232 0.0711,-7.46813 -4.3589899,-3.61764 0.48811,-7 10.03138,-7 8.00642,0 11.10574,1.45564 10.22996,4.80464 -0.38881,1.4868 0.1393,2.55546 1.80085,3.64415 2.29527,1.50392 2.31054,1.61149 0.6444,4.53949 -0.93863,1.64949 -2.04409,3.00192 -2.45659,3.0054 -1.38469,0.0117 -0.76691,2.78585 0.75,3.36795 1.91055,0.73314 1.92574,3.69323 0.0318,6.19724 -1.6026,2.11884 -2.04937,8.00322 -0.67225,8.85433 1.47905,0.9141 2.39077,15.58025 1.06765,17.17451 -0.79067,0.95271 -0.84787,1.81906 -0.17579,2.66229 1.92439,2.41441 2.48494,10.57448 0.88347,12.86089 -1.58326,2.26042 -0.81372,5.50795 2.14861,9.06745 0.95044,1.14203 1.12831,2.42021 0.55664,4 -0.46207,1.27691 -0.93526,4.79666 -1.05153,7.82166 -0.11626,3.025 -0.28172,6.85 -0.36768,8.5 -0.086,1.65 -0.0808,3.9 0.0115,5 0.52058,6.20311 -1.25675,12.0918 -4.75368,15.75 -3.145,3.29004 -4.14241,3.74223 -8.13174,3.68661 -2.50088,-0.0349 -5.60752,-0.4881 -6.90365,-1.00721 z m 27.3566,-118.9294 c -2.07626,-1.65 -4.33303,-3 -5.01506,-3 -0.68203,0 -1.82755,-0.70789 -2.5456,-1.57309 -0.71805,-0.8652 -2.98292,-2.42882 -5.03304,-3.47471 -2.05012,-1.0459 -5.21801,-3.26301 -7.03976,-4.92691 -1.82174,-1.66391 -4.11495,-3.02529 -5.09601,-3.02529 -0.98107,0 -2.72623,-1.08394 -3.87815,-2.40877 -1.15192,-1.32482 -4.7337749,-3.59325 -7.9596789,-5.04095 -3.225905,-1.4477 -6.13200902,-3.06375 -6.45800802,-3.59123 -0.326,-0.52748 -1.80366898,-0.96594 -3.28370998,-0.97436 -3.191168,-0.0182 -4.604454,-0.85499 -5.488299,-3.249702 -0.358288,-0.970754 -1.6754641,-2.156611 -2.9270581,-2.635237 -1.251594,-0.478626 -3.13287,-1.821872 -4.180614,-2.984992 -2.247189,-2.494648 -4.847269,-2.720664 -6.627121,-0.576074 -0.702349,0.846279 -3.425254,2.462844 -6.0509,3.592367 -2.625646,1.129522 -5.016974,2.687112 -5.314062,3.461308 -0.297088,0.7742 -1.713109,1.40764 -3.146714,1.40764 -3.145025,0 -16.126139,7.51473 -17.537909,10.15265 -0.553308,1.03386 -3.484071,3.27828 -6.512807,4.98759 -3.028737,1.70932 -7.621502,5.2996 -10.206146,7.97841 -2.584644,2.67881 -5.411755,4.87299 -6.282469,4.87595 -1.538939,0.005 -7.916884,-10.89446 -7.916884,-13.52971 0,-1.9124 14.215979,-16.595993 15.565949,-16.077963 0.650858,0.249763 2.92478,-1.329251 5.053161,-3.508911 3.957377,-4.052721 13.241566,-9.87802 15.743297,-9.87802 0.765987,0 1.952904,-0.675 2.637593,-1.5 0.684689,-0.825 2.073957,-1.5 3.087261,-1.5 1.013304,0 2.324037,-0.9 2.912739,-2 0.588702,-1.1 1.669526,-2 2.401831,-2 0.732305,0 3.528972,-0.852504 6.214816,-1.894454 2.685844,-1.04195 7.277016,-2.610325 10.202604,-3.485278 l 5.31925,-1.590824 5.94066,3.091778 c 3.2673631,1.700478 6.2737001,3.657887 6.6807491,4.349798 0.40705,0.691911 2.180224,1.993976 3.94038798,2.893478 1.76016302,0.899502 3.57388702,2.303025 4.03049602,3.118941 0.456609,0.815915 3.752641,2.505441 7.3245159,3.754501 6.26883,2.192168 9.58554,4.464204 19.68086,13.481914 3.05152,2.72579 5.06751,3.87647 5.69398,3.25 1.89926,-1.89927 4.37324,-0.9726 5.42001,2.03015 0.5952,1.70739 1.76055,3 2.70466,3 0.91237,0 3.84906,1.6875 6.52596,3.75 2.67691,2.0625 5.84268,4.44779 7.03504,5.30065 1.9293,1.37997 2.02508,1.82025 0.87016,4 -0.71377,1.34714 -2.40602,3.91185 -3.76056,5.69935 -3.27145,4.31713 -7.50299,4.40026 -12.72542,0.25 z M -26.483513,48.507095 c -1.738392,-1.059996 -3.456217,-2.858314 -3.817387,-3.996262 -0.361171,-1.137948 -0.968448,-2.068997 -1.349505,-2.068997 -0.381057,0 -1.925732,-1.143211 -3.432612,-2.540469 -2.164281,-2.006835 -2.739782,-3.439907 -2.739782,-6.822418 0,-8.317876 9.977973,-21.637113 16.209227,-21.637113 3.63962,0 9.567799,4.642763 11.8493801,9.280061 2.979239,6.055282 3.532922,13.208324 1.48955,19.243501 -2.2450021,6.630695 -5.1525251,9.758541 -7.7693341,8.358068 -1.471986,-0.787784 -2.369841,-0.656742 -3.690751,0.538666 -2.232084,2.020008 -2.912409,1.984218 -6.748786,-0.355037 z"
       id="path829"
       inkscape:connector-curvature="0" />
    <path
       style="fill:#8d6baa"
       d="m -28.105884,242.15268 c -0.634708,-1.29215 -1.431033,-3.92436 -1.769611,-5.84936 -0.338578,-1.925 -0.869198,-4.9687 -1.179155,-6.76377 -0.309958,-1.79508 -0.08141,-3.84473 0.507883,-4.55479 1.113674,-1.34189 -1.643927,-22.9219 -3.264052,-25.54332 -0.455664,-0.73728 -0.08433,-2.03427 0.890972,-3.11197 1.485709,-1.64169 1.602241,-3.88603 1.044625,-20.11878 -0.345197,-10.04902 -0.913814,-18.73401 -1.263594,-19.29996 -0.34978,-0.56596 -0.791339,-7.12165 -0.981242,-14.56821 -0.189903,-7.44656 -0.442219,-14.64154 -0.560701,-15.98886 -0.295558,-3.36091 3.414056,-5.13527 10.054373,-4.80915 l 5.269795,0.25881 0.446912,9.40011 c 0.359689,7.56549 0.830807,9.80995 2.413888,11.5 1.34794,1.43902 1.692522,2.58805 1.094904,3.65101 -0.504453,0.89724 -0.463476,3.36964 0.09721,5.86505 0.821378,3.65569 0.659388,4.83917 -1.061611,7.75605 -2.553961,4.32864 -2.537737,4.93676 0.21911,8.21282 1.957309,2.32594 2.232929,3.72281 2.118772,10.73817 -0.07218,4.43543 -0.650509,9.0347 -1.285184,10.2206 -0.848587,1.5856 -0.861915,2.70187 -0.05036,4.21827 0.606975,1.13414 1.316061,6.64239 1.575746,12.24056 0.259685,5.59817 0.903902,10.61023 1.431593,11.13792 1.09233,1.09233 1.253761,11.46379 0.301817,19.39081 -0.717138,5.97176 -1.528583,6.59383 -10.081071,7.72835 -4.376297,0.58054 -4.922575,0.42406 -5.971011,-1.71036 z m 69.814893,0.77739 c -0.62683,-0.75529 -0.83382,-2.17036 -0.45996,-3.14461 0.43849,-1.1427 0.0452,-2.23534 -1.10818,-3.0787 -1.21822,-0.89079 -1.54325,-1.88026 -1.02009,-3.1054 0.75986,-1.7794 1.16292,-3.84867 3.53521,-18.14921 1.04622,-6.30679 0.9886,-8.18158 -0.4056,-13.19623 -0.89378,-3.21478 -1.34392,-6.57772 -1.0003,-7.47318 0.72522,-1.88988 -1.39184,-9.25136 -3.32396,-11.55816 -1.60582,-1.91723 -1.715855,-4.56 -0.22814,-5.47946 0.60179,-0.37193 0.87368,-1.82967 0.60419,-3.23942 -0.26949,-1.40974 0.0182,-3.37691 0.63932,-4.37148 0.88779,-1.42158 0.71265,-2.58196 -0.81895,-5.42598 -1.70597,-3.16779 -1.763341,-3.7599 -0.46134,-4.7613 1.09072,-0.8389 1.47411,-3.142 1.43886,-8.64362 -0.0264,-4.125 -0.39988,-8.06158 -0.8299,-8.74795 -0.44354,-0.70796 -0.0118,-2.55144 0.99768,-4.26044 1.71203,-2.89824 1.70877,-3.14389 -0.0859,-6.47646 -2.797034,-5.19371 -1.18202,-6.51515 7.96253,-6.51515 9.47989,0 10.45934,0.43141 10.45934,4.60699 0,2.34934 0.46139,3.39301 1.5,3.39301 2.11339,0 1.86282,2.26903 -0.59571,5.39454 -2.04224,2.59629 -2.00771,5.60546 0.0643,5.60546 1.46559,0 1.27679,2.30084 -0.46246,5.63569 -1.91129,3.66473 -1.89502,6.27754 0.0635,10.2035 0.86332,1.73056 1.30186,3.99026 0.97454,5.02156 -0.32732,1.0313 -0.16744,2.99999 0.35529,4.37488 0.67937,1.78688 0.54555,3.28016 -0.46923,5.23616 -0.78081,1.505 -1.08753,3.25203 -0.68162,3.88229 0.40592,0.63026 1.23077,3.04585 1.83301,5.36798 0.91913,3.54399 0.82211,4.63804 -0.60412,6.81219 -1.4484,2.20796 -1.51954,3.11243 -0.48213,6.13004 0.66933,1.94695 1.79259,3.89566 2.49613,4.33047 0.89732,0.55458 1.02951,1.64352 0.44283,3.64791 -0.45998,1.57153 -0.96906,7.58233 -1.13128,13.35733 -0.45012,16.0243 -1.05819,19.03174 -4.59981,22.75 -2.7148,2.85021 -3.73299,3.25 -8.27699,3.25 -3.17318,0 -5.62312,-0.53225 -6.32109,-1.37325 z m 28.36703,-117.54368 c -1.08472,-1.05431 -3.33729,-2.74181 -5.00572,-3.75 -1.66842,-1.00819 -4.52569,-2.73307 -6.34949,-3.83307 -1.82379,-1.1 -5.47314,-3.6875 -8.10966,-5.75 -2.63652,-2.06249 -5.447,-3.74999 -6.24552,-3.74999 -0.79852,0 -2.30714,-0.94508 -3.35248,-2.10017 -2.3192,-2.56268 -17.024887,-9.897399 -19.861284,-9.906156 -1.224594,-0.0038 -2.732993,-1.209998 -3.751556,-3 -0.936919,-1.646522 -2.320978,-2.993677 -3.075686,-2.993677 -0.754708,0 -2.429079,-1.125 -3.720824,-2.5 -2.6175871,-2.786293 -6.750057,-3.314917 -7.646751,-0.978169 -0.32119,0.837007 -2.74987199,2.453572 -5.397071,3.592366 -2.647199,1.138795 -5.056161,2.703971 -5.353249,3.478169 -0.297088,0.774199 -1.723955,1.407634 -3.170817,1.407634 -3.341461,0 -13.778764,6.246563 -18.722597,11.205173 -2.084767,2.091 -5.26655,4.41855 -7.070629,5.17234 -1.804079,0.7538 -5.550734,3.67722 -8.325899,6.49651 -2.775165,2.81928 -5.745984,5.12597 -6.601819,5.12597 -0.88474,0 -2.043015,-1.47548 -2.684768,-3.42001 -0.620788,-1.881 -1.780686,-3.9611 -2.577552,-4.62244 -2.976713,-2.47045 -1.614562,-5.81908 5.277672,-12.97433 3.699585,-3.840768 7.525757,-6.983213 8.502602,-6.983213 0.976846,0 3.303807,-1.6875 5.171025,-3.75 3.279569,-3.622562 14.326198,-10.25 17.084723,-10.25 0.741655,0 1.506632,-0.474505 1.699949,-1.054456 0.300893,-0.902681 2.099982,-1.566538 5.065181,-1.869033 0.4125,-0.04208 0.75,-0.70089 0.75,-1.46402 0,-0.848568 2.816067,-2.262698 7.25,-3.640694 3.9875,-1.239253 9.10538,-2.904195 11.3730659,-3.699873 3.985989,-1.39859 4.318639,-1.344902 10.0056401,1.614862 3.235416,1.683851 6.663132,3.973173 7.617147,5.087381 0.954015,1.114208 2.403603,2.025833 3.221307,2.025833 0.817704,0 2.168501,1.040508 3.001771,2.312239 0.930975,1.420848 4.12032,3.229144 8.273053,4.69066 5.181256,1.823495 8.821716,4.142143 15.603066,9.937761 4.86477,4.157637 9.36477,7.391983 10,7.187433 3.82751,-1.2325 4.22874,-1.09561 5.32848,1.81794 0.67483,1.78783 1.87159,3.05397 2.88661,3.05397 0.95363,0 3.58022,1.50504 5.83687,3.34452 2.25664,1.8395 5.11549,3.88033 6.35299,4.53519 2.98391,1.57902 2.84223,2.92096 -0.83651,7.92328 -2.65768,3.61388 -3.59936,4.197 -6.77778,4.197 -2.28538,0 -4.44242,-0.7301 -5.66349,-1.91693 z M -0.14618099,42.314287 C -1.933681,41.224427 -3.396181,39.709116 -3.396181,38.946928 c 0,-0.762188 -1.571925,-2.456303 -3.493167,-3.764699 -1.921242,-1.308396 -3.564102,-3.053902 -3.6508,-3.878902 -1.050088,-9.992388 8.057541,-23.9999998 15.6045929,-23.9999998 9.5105431,0 16.6723441,17.1717578 11.9397881,28.6278758 -2.324262,5.626351 -4.252513,7.521646 -6.453839,6.343532 -1.9275821,-1.031611 -4.9465751,-0.338544 -4.9465751,1.135581 0,1.454542 -2.2793519,1.020066 -5.74999989,-1.096029 z"
       id="path825"
       inkscape:connector-curvature="0" />
  </g>
  <path
     inkscape:connector-curvature="0"
     id="path821"
     d="m 40.96311,232.41482 c -0.380987,-0.9625 -0.867696,-3.06606 -1.081576,-4.67459 -0.213879,-1.60852 -0.850308,-3.38602 -1.414285,-3.95 -1.64015,-1.64015 -1.187656,-6.78177 0.724587,-8.23336 0.9625,-0.73065 2.7625,-1.34275 4,-1.36025 1.2375,-0.0175 2.25,-0.53058 2.25,-1.14021 0,-0.66878 -0.94619,-0.87093 -2.385578,-0.50966 -1.382383,0.34695 -2.800605,0.0771 -3.372506,-0.6416 -0.542811,-0.68218 -1.70387,-6.19033 -2.580131,-12.24033 -1.44134,-9.95149 -1.444848,-11.11215 -0.0368,-12.17656 0.877669,-0.66347 1.319496,-1.97175 1.01315,-3 -0.29879,-1.00289 -0.801701,-9.64848 -1.117579,-19.21243 -0.315877,-9.56394 -0.864193,-17.85801 -1.218479,-18.43125 -0.354286,-0.57325 -0.740755,-7.1482 -0.858821,-14.61101 -0.118066,-7.46281 -0.378599,-14.20696 -0.578962,-14.987 -0.519403,-2.02209 3.910677,-4.04975 8.885704,-4.06701 l 4.250002,-0.0147 0.182888,5.75 c 0.281843,8.8611 -0.08155,11.66621 -1.647177,12.71486 -1.134017,0.75957 -0.768546,1.18512 1.717635,2 3.128611,1.02545 3.161419,1.10609 3.506535,8.61777 0.273172,5.94577 0.01289,7.86107 -1.205753,8.87245 -2.274234,1.88744 -1.900812,5.33038 0.936236,8.63206 1.604778,1.8676 2.276333,3.57257 1.888483,4.79458 -0.331034,1.043 -0.585523,4.73176 -0.565531,8.19726 0.02369,4.10581 -0.433594,6.69092 -1.312607,7.42043 -1.129256,0.9372 -1.11109,1.68883 0.111537,4.61499 0.803271,1.9225 1.424762,5.38324 1.381091,7.69053 -0.121567,6.42276 0.733735,13.31658 1.929325,15.55056 1.182524,2.20957 1.314605,12.13934 0.253215,19.03653 -0.640454,4.16183 -0.911726,4.4624 -5.175877,5.73482 -5.987159,1.78657 -7.651667,1.71259 -8.478726,-0.37684 z m 70.0345,0.84024 c -0.30924,-0.50036 -0.31993,-1.54126 -0.0237,-2.31309 0.29618,-0.77184 -0.36674,-2.22259 -1.47317,-3.22389 -1.10643,-1.00131 -1.70245,-2.32092 -1.32449,-2.93247 0.76947,-1.24501 1.84858,-7.22402 3.4576,-19.15737 0.88204,-6.54165 0.81011,-8.96956 -0.38667,-13.05215 -0.80864,-2.75856 -1.15982,-5.8921 -0.78039,-6.96342 0.65416,-1.84703 -0.42324,-5.33033 -3.66666,-11.85447 -1.00338,-2.01831 -1.12612,-3.2255 -0.40162,-3.95 0.57386,-0.57386 1.04338,-2.30949 1.04338,-3.85695 0,-1.54746 0.49721,-3.60972 1.10491,-4.5828 0.86166,-1.37975 0.65021,-2.57878 -0.96048,-5.44648 l -2.06538,-3.67725 3.0958,-2.20441 c 2.78359,-1.98208 2.92765,-2.32737 1.42844,-3.42362 -2.11729,-1.5482 -2.97155,-13.49484 -1.3067,-18.2739 0.9703,-2.7853 0.87074,-3.82129 -0.61623,-6.4122 -2.38575,-4.15691 -1.11979,-4.84504 8.31964,-4.52225 7.43196,0.25415 7.49758,0.28019 7.23349,2.87034 -0.14658,1.43762 0.41592,3.18022 1.25,3.87244 1.9468,1.6157 1.95641,4.90766 0.0165,5.65207 -0.825,0.31659 -1.5,1.37236 -1.5,2.34617 0,0.97382 0.675,2.33077 1.5,3.01546 0.825,0.68469 1.5,1.87891 1.5,2.65383 0,0.77492 -0.675,1.66796 -1.5,1.98454 -1.64565,0.6315 -2.19769,9.8124 -0.64761,10.7704 1.50141,0.92792 2.20583,13.52514 0.87543,15.65544 -0.90061,1.44212 -0.92408,2.39189 -0.092,3.72425 0.61429,0.98365 1.44184,3.71176 1.83899,6.06247 0.57613,3.41005 0.35742,4.67698 -1.08197,6.26748 -1.52295,1.68284 -1.60556,2.31132 -0.53016,4.03332 1.05985,1.69709 1.01002,2.33145 -0.29656,3.77521 -1.86445,2.06019 -1.13684,3.07306 2.20754,3.07306 1.92835,0 2.29113,0.36714 1.72918,1.75 -1.62535,3.99974 -2.24739,7.0453 -1.63976,8.02846 0.81175,1.31344 0.60144,16.09035 -0.24099,16.93279 -0.34215,0.34214 -0.62209,2.2468 -0.62209,4.23256 0,2.59969 -0.82409,4.51273 -2.94363,6.83333 -2.48104,2.71639 -3.65039,3.22286 -7.44098,3.22286 -2.47355,0 -4.75037,-0.40939 -5.05962,-0.90976 z m 26.44423,-119.09024 c -1.925,-1.62041 -4.0074,-2.9583 -4.62756,-2.9731 -0.62015,-0.0148 -1.69464,-0.7102 -2.38776,-1.54535 -0.69311,-0.83515 -2.88571,-2.27964 -4.87244,-3.20998 -1.98673,-0.93033 -4.88451,-2.94718 -6.4395,-4.48188 -1.555,-1.5347 -4.03,-3.073177 -5.5,-3.418837 -1.47001,-0.34567 -3.79774,-1.64943 -5.17274,-2.89727 -2.79555,-2.53701 -9.857244,-6.473585 -11.61275,-6.473585 -0.628301,0 -1.702565,-0.675 -2.387254,-1.5 -0.684689,-0.825 -2.467558,-1.5 -3.96193,-1.5 -1.935799,0 -3.04824,-0.726904 -3.868903,-2.528065 -0.633525,-1.390436 -1.943257,-2.817023 -2.910515,-3.170194 -0.967259,-0.353171 -3.030678,-1.690542 -4.585377,-2.971935 -3.436017,-2.831988 -8.205423,-3.072512 -9.590926,-0.483676 -0.54341,1.015371 -2.994565,2.612436 -5.447011,3.549034 -2.452446,0.936598 -4.709547,2.355839 -5.015781,3.15387 -0.306233,0.798031 -1.583411,1.456044 -2.838172,1.46225 -3.076287,0.01522 -16.121985,7.880711 -18.874232,11.379631 -1.215777,1.54561 -4.054749,3.642507 -6.308828,4.659777 -4.623547,2.08661 -8.260973,5.16678 -10.871378,9.20586 -0.975179,1.5089 -2.325179,2.74238 -3,2.74107 -1.259579,-0.002 -6.726947,-9.55638 -6.726947,-11.755 0,-0.67412 0.864613,-1.765632 1.921362,-2.425577 1.05675,-0.65995 3.635374,-3.36377 5.730277,-6.00848 2.206154,-2.78516 4.625731,-4.808565 5.750055,-4.808565 1.067627,0 3.776502,-1.9145 6.019723,-4.254445 4.096803,-4.27345 19.151721,-12.745555 22.648834,-12.745555 1.006703,0 2.242524,-0.73648 2.746269,-1.636622 1.036288,-1.851746 10.615263,-6.262131 13.73348,-6.323218 1.1275,-0.02209 2.528344,-0.518504 3.112988,-1.103148 1.885594,-1.885594 6.714983,-1.230906 11.668731,1.581854 2.657445,1.508908 5.059738,3.337679 5.338428,4.063934 0.27869,0.726255 2.020417,1.820032 3.870503,2.430616 1.850086,0.610583 3.614699,1.900685 3.921361,2.866893 0.339447,1.069501 3.194353,2.685827 7.297783,4.131696 6.28503,2.21457 13.64624,7.365625 22.53569,15.76951 2.44235,2.30894 3.05467,2.48091 4.84738,1.36135 1.12854,-0.7048 2.14196,-1.13776 2.25204,-0.96215 0.11007,0.17561 0.73161,1.55679 1.38118,3.06929 0.6772,1.57682 1.96662,2.749995 3.02248,2.749995 1.01279,0 3.68148,1.575002 5.93041,3.500002 2.24893,1.925 4.46742,3.50689 4.92999,3.51531 0.46257,0.008 1.47233,0.415 2.24392,0.9035 1.14679,0.72606 0.87299,1.72689 -1.5,5.4829 -2.40794,3.81131 -3.41438,4.59043 -5.90288,4.5696 -1.8353,-0.0154 -4.35881,-1.16892 -6.5,-2.97131 z M 67.547591,31.263608 c -1.708165,-1.595665 -3.105755,-3.298642 -3.105755,-3.784392 0,-0.485751 -1.35,-1.680648 -3,-2.655327 -2.509407,-1.482343 -3,-2.403586 -3,-5.633445 0,-7.409648 9.016986,-20.0256258 14.312865,-20.0256258 3.406204,0 7.565735,3.6019746 10.080327,8.7291276 2.883502,5.8793492 3.317617,11.6443342 1.310608,17.4047042 -1.879362,5.394006 -3.439418,6.869044 -6.597033,6.237521 -1.794762,-0.358952 -3.166207,-0.0047 -4.035225,1.042444 -1.793854,2.161462 -2.383305,2.031532 -5.965787,-1.315007 z"
     style="fill:#65368c" />
</svg>
