<?xml version="1.0" encoding="UTF-8" standalone="no"?>
<!-- Created with Inkscape (http://www.inkscape.org/) -->

<svg
   xmlns:dc="http://purl.org/dc/elements/1.1/"
   xmlns:cc="http://creativecommons.org/ns#"
   xmlns:rdf="http://www.w3.org/1999/02/22-rdf-syntax-ns#"
   xmlns:svg="http://www.w3.org/2000/svg"
   xmlns="http://www.w3.org/2000/svg"
   xmlns:sodipodi="http://sodipodi.sourceforge.net/DTD/sodipodi-0.dtd"
   xmlns:inkscape="http://www.inkscape.org/namespaces/inkscape"
   version="1.1"
   id="svg2"
   width="151.09375"
   height="246.91602"
   viewBox="0 0 151.09375 246.91602"
   sodipodi:docname="allogo.svg"
   inkscape:version="0.92.4 (5da689c313, 2019-01-14)">
  <metadata
     id="metadata8">
    <rdf:RDF>
      <cc:Work
         rdf:about="">
        <dc:format>image/svg+xml</dc:format>
        <dc:type
           rdf:resource="http://purl.org/dc/dcmitype/StillImage" />
        <dc:title></dc:title>
      </cc:Work>
    </rdf:RDF>
  </metadata>
  <defs
     id="defs6">
    <clipPath
       clipPathUnits="userSpaceOnUse"
       id="clipPath842">
      <g
         inkscape:label="Clip"
         id="use844">
        <path
           inkscape:connector-curvature="0"
           id="path848"
           d="m 28.863302,242.68466 c -0.35409,-0.94408 -1.3297,-2.23031 -2.16802,-2.8583 -1.26219,-0.9455 -1.3009,-1.41087 -0.22518,-2.70704 1.07481,-1.29506 1.02514,-1.95632 -0.28774,-3.83072 -2.20371,-3.14623 -2.10259,-10.42065 0.1632,-11.74035 0.9625,-0.56061 1.25257,-1.03297 0.64461,-1.04969 -0.9915,-0.0273 -1.41947,-2.52429 -3.00462,-17.53041 -0.23239,-2.2 -0.86521,-4.15 -1.40626,-4.33333 -1.62088,-0.54923 -1.15949,-5.16667 0.51627,-5.16667 1.84331,0 1.91006,-2.05459 1.06289,-32.71295 -0.0488,-1.76712 -0.64545,-3.76962 -1.32583,-4.45 -1.41887,-1.41886 -1.70178,-10.83705 -0.32554,-10.83705 0.97534,0 0.92926,-1.85864 -0.0868,-3.5 -1.32419,-2.13917 -1.35002,-20.16215 -0.0312,-21.75127 1.66785,-2.00965 14.17632,-3.3704 17.01528,-1.85104 1.89306,1.01314 2.35922,3.26757 0.96412,4.66267 -0.83701,0.83701 0.26366,7.63354 1.48823,9.18964 0.65703,0.83491 0.59189,1.72208 -0.19617,2.67164 -1.3521,1.62919 0.50023,5.57836 2.6165,5.57836 2.15623,0 2.55179,2.08471 0.76929,4.05435 -1.40357,1.55092 -1.55798,2.56608 -0.78897,5.18698 1.01365,3.45465 -0.19716,10.75867 -1.78349,10.75867 -1.65646,0 -0.87725,2.69021 1.62042,5.59446 2.56145,2.97842 3.3857,7.40554 1.37878,7.40554 -0.77551,0 -0.73766,0.46364 0.12244,1.5 0.99475,1.19859 0.98768,1.80992 -0.0352,3.04238 -0.96957,1.16826 -0.99927,1.82318 -0.12244,2.7 1.58733,1.58733 1.45549,5.26552 -0.23915,6.67194 -1.39223,1.15545 -1.12379,4.54171 0.52905,6.6735 0.83496,1.07692 0.92133,2.31778 0.96314,13.83717 0.0118,3.25874 0.45995,6.74421 0.99581,7.74549 0.56983,1.06473 0.69881,5.2473 0.31068,10.07501 -0.36499,4.53998 -0.71724,9.79139 -0.78277,11.6698 -0.0723,2.07284 -0.70875,3.6058 -1.61914,3.89995 -0.825,0.26656 -1.725,0.7987 -2,1.18255 -0.275,0.38385 -3.55741,0.9763 -7.29424,1.31656 -5.85325,0.53298 -6.8834,0.38093 -7.43803,-1.09784 z m 8.23226,-2.21651 c 0.33992,-0.55 2.10237,-1 3.91656,-1 h 3.29853 l 0.64246,-6.14669 c 1.0829,-10.36067 0.78863,-16.4871 -0.85755,-17.85331 -1.81385,-1.50536 -2.00039,-5.99387 -0.25,-6.01531 0.89278,-0.0109 0.85083,-0.26806 -0.14679,-0.89974 -0.98593,-0.62428 -1.42715,-3.19354 -1.5,-8.73469 -0.0568,-4.31764 -0.52154,-8.15177 -1.03283,-8.52029 -1.48862,-1.07293 -1.53297,-3.90709 -0.0699,-4.46852 0.96693,-0.37105 1.35055,-2.79756 1.37353,-8.68814 0.0367,-9.39975 -0.43882,-11.67331 -2.44138,-11.67331 -1.00471,0 -1.43261,-1.19473 -1.43261,-4 0,-2.2 0.4645,-4 1.03223,-4 1.86339,0 2.65093,-4.24108 1.72921,-9.31223 -0.69483,-3.82288 -0.59797,-5.17229 0.41664,-5.80437 0.91845,-0.57219 0.35635,-1.01816 -1.84163,-1.46118 -2.89485,-0.58348 -3.12068,-0.90453 -2.65884,-3.77993 0.27758,-1.72826 0.57618,-6.4041 0.66355,-10.39075 l 0.15884,-7.24847 -5.75,-0.002 c -3.16769,-3.8e-4 -5.75,0.44803 -5.75,0.99893 0,0.55 -0.675,1 -1.5,1 -0.825,0 -1.5,0.675 -1.5,1.5 0,0.825 0.45,1.5 1,1.5 0.55,0 1,1.8 1,4 0,2.52517 -0.46088,4.00565 -1.25,4.01531 -0.90572,0.0111 -0.93453,0.21767 -0.1046,0.75 0.7319,0.46947 1.14662,4.26371 1.14878,10.51026 0.002,5.37657 0.38643,10.32657 0.8546,11 0.46817,0.67344 0.85122,8.75456 0.85122,17.95805 0,12.46157 0.31912,16.85744 1.25,17.21862 2.44957,0.95041 1.28443,3.59087 -1.86222,4.2202 -2.32248,0.4645 -2.7365,0.83272 -1.63157,1.45106 0.97511,0.54571 1.72536,3.31216 2.19735,8.10256 0.39419,4.00067 1.17874,7.83071 1.74345,8.51121 0.56471,0.68049 0.74994,1.9586 0.41162,2.84024 -0.33831,0.88163 -0.28917,2.12487 0.1092,2.76273 1.33924,2.14437 1.2812,4.65976 -0.10752,4.65976 -2.12323,0 -2.80491,5.25559 -0.87394,6.73782 0.90703,0.69624 1.64561,2.77318 1.6881,4.74705 0.0415,1.93008 0.41303,3.51057 0.82553,3.51219 0.4125,0.002 0.75,0.67794 0.75,1.50294 0,1.69924 4.50568,2.10885 5.5,0.5 z m -4.85586,-19.48498 c -0.35795,-0.9328 0.003,-1.82612 0.87272,-2.15986 2.0726,-0.79533 4.73235,0.3942 4.23797,1.89537 -0.6238,1.89415 -4.41014,2.09011 -5.11069,0.26449 z m 66.4775,22.41401 c -2.04765,-0.82613 -2.29973,-1.44411 -1.81287,-4.44429 0.48278,-2.97499 0.28213,-3.48474 -1.37163,-3.48474 -1.39961,0 -1.93713,-0.69371 -1.93713,-2.5 0,-1.45455 0.575,-2.5 1.375,-2.5 1.61319,0 2.625,-4.28817 2.625,-11.125 0,-2.68125 0.45,-4.875 1,-4.875 1.34755,0 1.30534,-13.73155 -0.0436,-14.1812 -0.57398,-0.19132 -1.06289,-2.36632 -1.08647,-4.83333 -0.0555,-5.81224 -1.74918,-12.64036 -3.49458,-14.08891 -1.92931,-1.60119 -1.71325,-5.5833 0.37464,-6.90491 1.25321,-0.79327 1.39515,-1.25685 0.5,-1.63302 -1.6906,-0.71045 -1.58979,-4.29101 0.13949,-4.9546 1.68142,-0.64522 0.98157,-4.04767 -0.98804,-4.80347 -2.31496,-0.88834 -1.71422,-5.53929 0.84855,-6.5694 1.7239,-0.69292 1.84081,-0.91921 0.5,-0.96777 -1.9172,-0.0694 -2.53403,-4.06339 -0.62755,-4.06339 0.76935,0 0.72593,-0.47777 -0.13801,-1.51876 -1.02181,-1.23121 -0.98372,-1.84653 0.20118,-3.25 1.52171,-1.80238 1.35198,-5.23124 -0.25894,-5.23124 -1.4779,0 -1.07171,-3.99782 0.57333,-5.64286 1.92821,-1.92821 1.92821,-4.97884 0,-5.71877 -1.97043,-0.75612 -1.92518,-5.04061 0.0707,-6.69706 1.02565,-0.85121 4.77837,-1.32748 10.814028,-1.37245 7.72404,-0.0575 9.54928,0.23589 11.10481,1.78524 1.51637,1.51034 1.64355,2.2031 0.68597,3.73644 -1.5781,2.52694 -1.51666,2.71988 0.98395,3.08991 2.54704,0.3769 3.3149,3.45469 1.16241,4.65929 -0.8256,0.46202 -1.46077,1.1371 -1.41149,1.50015 0.28002,2.063 -0.0879,2.66654 -1.6604,2.7235 -1.34081,0.0486 -1.2239,0.27485 0.5,0.96777 2.60016,1.04514 3.08252,5.34896 0.88431,7.8901 -2.25837,2.61068 -2.86294,6.85141 -1.11612,7.82898 1.19401,0.6682 1.66962,3.69749 2.16713,13.80292 0.58715,11.92631 0.61075,14.88927 0.18088,22.71026 -0.0835,1.51989 0.5874,3.58032 1.49096,4.57874 2.02913,2.24217 2.06984,4.10619 0.16966,7.76879 -1.29758,2.50108 -1.29758,2.93784 0,3.664 1.8868,1.05591 1.88346,3.80498 -0.008,6.28392 -1.09463,1.43489 -1.32557,3.40686 -0.88551,7.56136 0.36892,3.48294 0.19653,5.86669 -0.45333,6.26832 -0.57675,0.35645 -0.81029,2.11686 -0.51898,3.91203 0.43969,2.70949 -0.0589,3.92536 -2.93532,7.15779 -3.19967,3.59571 -3.91525,3.91439 -9.3455,4.16204 -3.23429,0.14749 -6.95079,-0.16362 -8.258898,-0.69138 z m 11.878368,-2.92903 c 0,-0.55 0.64468,-1 1.43261,-1 0.78794,0 1.71826,-0.9 2.06739,-2 0.34913,-1.1 1.05445,-2 1.56739,-2 0.51293,0 0.93261,-1.725 0.93261,-3.83333 0,-2.10834 0.30803,-4.14137 0.68452,-4.51785 1.02334,-1.02335 1.00799,-16.05049 -0.0171,-16.77542 -0.99458,-0.70333 1.25851,-7.96164 2.82729,-9.10809 0.55293,-0.40408 -0.68217,-0.74158 -2.74467,-0.75 -3.07827,-0.0126 -3.75004,-0.37359 -3.75004,-2.01531 0,-1.3984 0.6768,-2.00915 2.25,-2.03041 2.0094,-0.0272 2.06287,-0.1394 0.5,-1.04969 -2.30397,-1.34194 -2.22308,-4.49574 0.18151,-7.07676 1.5405,-1.65353 1.73467,-2.59094 0.95919,-4.63063 -0.53478,-1.40658 -0.74308,-3.15481 -0.4629,-3.88496 0.2809,-0.73202 -0.14938,-1.32755 -0.95918,-1.32755 -1.94379,0 -1.92088,-4.37977 0.0314,-6 1.9152,-1.58947 1.88879,-2.46835 -0.13497,-4.49212 -1.2755,-1.2755 -1.40267,-2.11569 -0.57839,-3.82142 1.39303,-2.88268 1.20059,-5.47738 -0.45331,-6.11204 -2.11505,-0.81162 -1.77764,-10.22639 0.41038,-11.45087 1.61799,-0.90547 1.58194,-1.14801 -0.5,-3.36414 -2.7888,-2.96854 -2.82911,-4.37575 -0.16615,-5.80092 1.14266,-0.61153 1.8426,-1.72417 1.55543,-2.47253 -0.28766,-0.74962 0.23886,-1.56124 1.17244,-1.80731 1.24616,-0.32846 1.11701,-0.47734 -0.48804,-0.56265 -1.96906,-0.10465 -3.62979,-2.55067 -3.23349,-4.76244 0.53385,-2.97949 -0.3168,-3.35356 -7.62613,-3.35356 -8.744968,0 -11.180418,1.27737 -8.171768,4.28602 1.44969,1.44969 1.74969,2.67373 1.24086,5.06295 -0.36908,1.73307 -0.75112,6.86333 -0.84897,11.40059 -0.13418,6.22176 0.14386,8.24967 1.13111,8.25 0.719958,2.4e-4 1.030898,0.45044 0.690978,1.00044 -0.339918,0.55 -0.141478,1 0.44098,1 2.13476,0 0.97582,1.59293 -1.967138,2.70377 l -3.02616,1.14225 2.02616,3.60741 c 2.19753,3.9125 2.610408,6.54657 1.02616,6.54657 -0.55,0 -1,1.7625 -1,3.91667 0,2.23347 -0.53719,4.10457 -1.25,4.3539 -0.91622,0.32048 -0.78271,0.96456 0.5,2.41207 0.9625,1.08616 1.75,2.89681 1.75,4.02366 0,1.12684 0.675,2.60901 1.499998,3.2937 1.818,1.5088 1.98435,5.67032 0.25,6.25405 -0.952668,0.32063 -0.893658,0.85219 0.24808,2.23471 1.88972,2.28823 2.02766,23.66933 0.15673,24.29297 -0.68149,0.22716 -1.154808,2.58088 -1.154808,5.74259 0,2.9467 -0.47232,5.64956 -1.04961,6.00634 -0.64917,0.40121 -0.26765,1.32688 1,2.42631 1.127288,0.97769 2.049608,2.96234 2.049608,4.41033 0,2.45357 0.30618,2.6327 4.5,2.6327 2.475,0 4.5,-0.45 4.5,-1 z m 61.25,0.3124 c -1.2375,-0.24833 -2.25,-0.91835 -2.25,-1.48894 0,-0.57059 -0.66059,-0.78395 -1.46797,-0.47412 -0.80739,0.30982 -1.73688,0.12823 -2.06553,-0.40355 -0.32866,-0.53177 -0.79641,-6.59698 -1.03947,-13.47825 l -0.44191,-12.51138 2.57254,-0.97808 c 1.4149,-0.53794 4.10241,-0.97808 5.97226,-0.97808 3.97862,0 5.47008,2.04054 5.47008,7.48392 0,1.98847 0.67182,4.91455 1.49292,6.50239 0.82111,1.58785 1.27909,3.478 1.01774,4.20034 -0.67194,1.85718 2.9442,6.2683 4.40068,5.36814 0.9069,-0.56049 0.91038,-1.06468 0.0148,-2.14382 -0.95647,-1.15245 -0.69964,-1.41097 1.40173,-1.41097 1.41501,0 2.98306,-0.73318 3.48455,-1.6293 0.50149,-0.89611 1.49893,-1.43358 2.21653,-1.19438 0.91624,0.30541 0.6034,1.08828 -1.05067,2.62929 -1.29547,1.20692 -1.89899,2.19439 -1.34116,2.19439 1.79035,0 5.36288,-4.556 5.36288,-6.8392 0,-1.4671 -0.88502,-2.54679 -2.63208,-3.21102 -3.37247,-1.28221 -5.80382,-0.48238 -8.34183,2.74419 -1.26761,1.61149 -2.02609,2.02898 -2.02609,1.1152 0,-2.67338 4.42205,-5.80917 8.19201,-5.80917 4.62515,0 6.23459,1.98376 5.46367,6.73439 -0.66935,4.12472 -3.8474,7.20854 -7.4647,7.24337 -1.28058,0.0123 -2.03374,0.46764 -1.69098,1.02224 0.9706,1.57047 6.65547,1.16928 8.61967,-0.6083 1.81858,-1.6458 1.91301,-1.18443 0.99435,4.8583 -0.16697,1.09826 -11.11402,0.91839 -11.11402,-0.18261 0,-1.79677 -4.29206,-2.38846 -5.48557,-0.75624 -1.29886,1.7763 -4.96337,2.66367 -8.26443,2.00125 z m 6.22428,-3.11351 c 1.96672,-1.54702 2.1061,-2.05228 0.98795,-3.58142 -1.21276,-1.65855 -1.32437,-1.62086 -1.63201,0.55111 -0.27886,1.9688 -0.91359,2.33142 -4.08088,2.33142 -4.34931,0 -4.5833,0.22924 -1.49934,1.46884 3.21646,1.29286 3.67376,1.23629 6.22428,-0.76995 z m 9.36418,-0.64482 c -1.28615,-0.6702 -2.56275,-1.03225 -2.83689,-0.80455 -0.85042,0.70637 3.2372,3.22095 4.23421,2.60476 0.51762,-0.31991 -0.11117,-1.13 -1.39732,-1.80021 z m 7.72041,0.9401 c 1.82655,-1.41694 1.78487,-1.45023 -0.70605,-0.56384 -1.45594,0.51809 -2.91844,0.67071 -3.25,0.33916 -0.33155,-0.33155 -0.60282,-0.0778 -0.60282,0.56384 0,1.62342 2.24418,1.45646 4.55887,-0.33916 z m -26.61341,-18.03825 c -0.35308,-1.67425 -0.25608,-4.08721 0.21555,-5.36214 0.69092,-1.86774 1.42825,-2.23429 3.79544,-1.88686 1.61586,0.23715 2.71013,0.0626 2.43172,-0.38786 -0.7734,-1.2514 -4.67641,-0.91621 -6.63365,0.56968 -1.47907,1.12288 -1.72684,2.9114 -1.62336,11.7182 0.0672,5.71618 0.40262,10.84306 0.74547,11.39306 0.90339,1.4492 1.82871,-12.44079 1.06883,-16.04408 z m 7.89539,12.99403 1.16188,-2.55005 2.49864,2.69607 c 3.54781,3.82816 3.09588,1.89307 -0.75137,-3.21719 -2.42864,-3.22593 -3.945,-4.32475 -6,-4.34786 -2.63746,-0.0297 -2.75,0.17371 -2.75,4.96908 0,4.57518 0.19877,5 2.33948,5 1.53728,0 2.7379,-0.87441 3.50137,-2.55005 z m 1.15915,-8.94995 c -0.68469,-0.825 -2.42729,-1.43872 -3.87244,-1.36382 l -2.62756,0.13618 2.5,0.4485 c 1.375,0.24667 2.9275,0.86039 3.45,1.36382 1.52279,1.46721 1.91069,1.05485 0.55,-0.58468 z m -2.0318,-5.36658 c -0.0393,-2.01995 -2.31685,-5.13342 -3.75512,-5.13342 -1.26532,0 -1.9397,2.66675 -1.41481,5.59472 0.28894,1.61176 0.93188,1.98836 2.78862,1.63342 1.39741,-0.26713 2.39972,-1.14882 2.38131,-2.09472 z m 1.72113,-1.88342 c -0.25153,-0.9625 -0.45733,-0.175 -0.45733,1.75 0,1.925 0.2058,2.7125 0.45733,1.75 0.25152,-0.9625 0.25152,-2.5375 0,-3.5 z m 41.23375,21.82692 c -1.65456,-1.65455 -2.88882,-3.93289 -2.84413,-5.25 0.078,-2.29978 0.0899,-2.29727 1.01427,0.2159 1.81986,4.94755 9.90678,7.632 9.90678,3.28856 0,-1.34663 -0.26667,-1.46471 -1.2,-0.53138 -2.55541,2.55541 -7.8,-0.14874 -7.8,-4.02175 0,-0.86035 -0.72482,-1.84241 -1.6107,-2.18236 -1.65776,-0.63614 -1.65456,-0.75058 -0.22061,7.90363 0.23846,1.43916 -0.29924,2.0892 -1.91869,2.31955 -1.75993,0.25033 -2.25,-0.1687 -2.25,-1.92383 v -2.24387 l -2.31445,2.17432 c -1.6576,1.55723 -3.43138,2.12889 -6.25,2.01427 l -3.93555,-0.16003 3.49599,-0.42167 c 3.88014,-0.468 5.58472,-1.57591 7.19432,-4.67602 1.02654,-1.97712 0.95743,-1.96865 -1.36904,0.16776 -3.2455,2.98035 -5.62892,2.86458 -6.42622,-0.31214 -1.08397,-4.31888 4.80344,-13.34314 7.92384,-12.14573 0.90916,0.34888 1.57331,2.77618 1.91113,6.98472 0.28476,3.54751 1.05546,7.29898 1.71267,8.33659 1.06809,1.68633 1.12483,1.62122 0.53456,-0.61344 -0.3632,-1.375 -0.89746,-5.07663 -1.18725,-8.22586 -0.28979,-3.14922 -1.16393,-6.25455 -1.94253,-6.90073 -2.4102,-2.00029 -6.401,1.01987 -9.08665,6.87659 -1.32409,2.8875 -2.60802,5.25 -2.85318,5.25 -1.0178,0 1.05004,-5.51956 3.42927,-9.15353 4.10074,-6.26337 9.9524,-6.38746 11.29478,-0.23953 l 0.63168,2.89306 0.11832,-3.32332 c 0.0924,-2.59498 0.50184,-3.24912 1.86831,-2.9847 1.36546,0.26421 1.77447,1.42378 1.86134,5.2771 0.0612,2.71616 0.62374,5.10928 1.25,5.31803 0.62626,0.20876 1.13866,1.01706 1.13866,1.79622 0,2.11083 1.93131,1.71407 4.05644,-0.83333 1.20057,-1.43913 1.89453,-3.87173 1.9256,-6.75 0.0354,-3.28214 0.31093,-4.09405 1.01796,-3 0.86167,1.33333 0.97889,1.33333 1.05497,0 0.1701,-2.98071 1.80451,2.48009 1.7958,6 -0.005,1.925 -0.2343,2.94152 -0.51007,2.25893 -0.37032,-0.91659 -0.93562,-0.80687 -2.16213,0.41964 -1.20949,1.20949 -1.32351,1.77312 -0.41964,2.07441 1.95056,0.65018 1.45842,5.06033 -0.69319,6.21184 -3.11483,1.66701 -5.03234,1.22243 -8.14266,-1.8879 z m -11.36537,-4.54469 c 2.81283,-3.03509 3.78263,-5.88457 2.92375,-8.59063 -0.62262,-1.96171 -0.7902,-1.91516 -3.56738,0.9909 -2.08584,2.18262 -2.91408,4.04666 -2.91408,6.5584 0,4.16372 0.5223,4.31659 3.55771,1.04133 z m 28.92196,6.64088 c -4.17103,-1.38965 -6.78095,-3.95706 -5.95637,-5.85934 0.73687,-1.69992 0.81249,-1.70392 1.20478,-0.0638 0.23021,0.9625 0.79344,1.75 1.25162,1.75 0.45819,0 0.71478,-0.7875 0.5702,-1.75 -0.14457,-0.9625 -0.0694,-1.1875 0.16695,-0.5 0.23639,0.6875 1.14887,1.25 2.02773,1.25 0.87887,0 2.38344,0.71087 3.34349,1.5797 1.37333,1.24285 2.18978,1.34197 3.82874,0.46482 2.92622,-1.56606 2.775,-6.85621 -0.27869,-9.74992 -2.76402,-2.61918 -4.63812,-1.46905 -4.63812,2.84641 0,1.50754 -0.45,3.0191 -1,3.35902 -1.44625,0.89383 -1.25989,-6.84011 0.2,-8.3 1.64363,-1.64363 4.301,-1.50618 5.8,0.3 0.68469,0.825 1.70953,1.5 2.27743,1.5 0.5679,0 0.21806,-0.9 -0.77743,-2 -1.12279,-1.24067 -3.07997,-2 -5.15499,-2 h -3.34501 l -0.1347,-5.75 c -0.12012,-5.12745 -0.23421,-4.77557 -1.05382,3.25 -0.50552,4.95 -1.40291,9.45 -1.9942,10 -0.76246,0.70922 -0.89473,-0.59929 -0.45487,-4.5 0.34111,-3.025 0.62412,-7.8938 0.6289,-10.81955 0.008,-4.94251 0.16817,-5.2969 2.25869,-5 1.96016,0.27839 2.28894,0.99585 2.55226,5.56955 0.25829,4.48638 0.59376,5.25 2.30637,5.25 1.10226,0 3.32874,1.45029 4.94774,3.22286 2.96571,3.24704 3.93067,5.5052 1.78611,4.17979 -0.81158,-0.50158 -0.96509,0.004 -0.51366,1.69098 0.35413,1.3235 0.65002,3.44543 0.65753,4.71539 0.008,1.26996 0.45759,2.03465 1.00018,1.69931 0.62854,-0.38846 0.67963,0.22516 0.14079,1.69098 -0.69098,1.87969 -1.64921,2.33237 -5.23653,2.4738 -2.41493,0.0952 -5.29994,-0.12979 -6.41112,-0.5 z m 9.08642,-1.28004 c 0.46906,-0.75895 -0.21971,-0.9139 -2.19098,-0.49288 -1.74668,0.37304 -3.99931,0.0225 -5.73942,-0.89307 -3.2987,-1.73569 -3.63569,-1.80058 -3.63569,-0.70016 0,2.23096 10.32556,4.09333 11.56609,2.08611 z m 18.55891,1.40298 c -2.72369,-1.08165 -5.2855,-4.51023 -5.81692,-7.78503 -0.34709,-2.13883 -1.21866,-3.51588 -2.42496,-3.83133 -1.03571,-0.27085 -1.89001,-1.32208 -1.89843,-2.33607 -0.0129,-1.55595 -0.16639,-1.60956 -0.98347,-0.34362 -0.53249,0.825 -0.70712,2.92732 -0.38807,4.67183 0.77306,4.22688 -0.42601,9.32817 -2.19261,9.32817 -0.78129,0 -1.42054,-0.47656 -1.42054,-1.05902 0,-0.58246 0.45,-0.7809 1,-0.44098 0.62581,0.38677 1.00511,-1.74275 1.01365,-5.69098 0.008,-3.46996 0.285,-7.32152 0.61664,-8.55902 0.36178,-1.35 0.15632,-2.25 -0.51366,-2.25 -0.61415,0 -1.16257,1.4625 -1.21872,3.25 l -0.10209,3.25 -1.04747,-3.2671 c -0.57612,-1.79691 -0.79803,-3.51655 -0.49315,-3.82143 0.95301,-0.95301 11.95177,-0.6045 12.96715,0.41088 0.53087,0.53087 0.74571,1.80051 0.47743,2.82143 -0.45001,1.71248 -0.54064,1.69386 -1.17032,-0.24048 -0.51051,-1.56821 -1.29339,-1.97992 -3.106,-1.63342 -2.87215,0.54905 -3.23256,3.20578 -0.53074,3.91232 1.14203,0.29864 2.14062,1.73448 2.51776,3.6202 0.67628,3.38139 5.13704,8.6976 7.29805,8.6976 0.73389,0 1.83857,-1.10665 2.45484,-2.45922 0.89087,-1.95524 1.4864,-2.2634 2.90595,-1.50368 1.36493,0.73048 1.89299,0.54423 2.24206,-0.79078 0.34244,-1.30966 0.48562,-1.18372 0.57262,0.50368 0.0658,1.2756 -0.46648,2.25 -1.22901,2.25 -0.73976,0 -2.1595,0.9 -3.15499,2 -1.78688,1.97448 -3.69159,2.36171 -6.375,1.29605 z m 12.41621,-1.46289 c -0.87973,-2.55046 -2.42567,-16.21109 -1.92606,-17.01947 0.84809,-1.37224 3.38485,-0.90211 3.38485,0.62729 0,1.89319 1.43185,2.71427 3.40976,1.95528 2.28106,-0.87533 1.95967,-2.186 -0.65976,-2.69053 -1.2375,-0.23835 -0.0895,-0.49465 2.55103,-0.56955 4.58095,-0.12994 4.86744,0.0228 6.25,3.3317 1.4731,3.52562 1.93636,11.09841 0.85184,13.92463 -0.95541,2.48977 -3.40287,-0.6181 -3.40287,-4.32108 0,-1.68929 -0.39375,-3.07143 -0.875,-3.07143 -0.48125,0 -1.145,-1.35 -1.475,-3 -0.92563,-4.62814 -3.23687,-3.7612 -3.49952,1.31265 -0.12278,2.37196 -0.5689,5.60514 -0.99138,7.18484 -0.83834,3.13467 -2.88626,4.45678 -3.61789,2.33567 z m 1.01996,-14.3779 c -1.50256,-2.89618 -1.51652,-2.86014 -0.98916,2.55355 0.2942,3.02015 0.84445,7.06619 1.22279,8.99119 0.60585,3.08265 0.7238,2.77816 0.98916,-2.55355 0.19881,-3.99462 -0.21709,-7.05269 -1.22279,-8.99119 z m 11.00833,0.96565 c -0.36971,-1.47308 -1.33406,-2.42091 -2.46309,-2.42091 -1.76784,0 -1.75595,0.20076 0.25167,4.25 1.53117,3.08828 2.20445,3.75003 2.46309,2.42091 0.19577,-1.00601 0.0825,-2.91851 -0.25167,-4.25 z m -25.91451,9.75035 c -1.76674,-1.95223 -2.24195,-5.17126 -0.7634,-5.17126 0.49038,0 1.17395,1.125 1.51905,2.5 0.34511,1.375 1.28532,2.5 2.08936,2.5 0.80404,0 1.74425,-1.125 2.08936,-2.5 0.3451,-1.375 1.00016,-2.5 1.45569,-2.5 0.45553,0 1.00973,-1.4625 1.23155,-3.25 l 0.40333,-3.25 0.30194,3.5 0.30194,3.5 0.66549,-4 0.66549,-4 0.81307,4.7962 c 0.83809,4.94373 0.14057,7.24157 -1.42786,4.7038 -1.01375,-1.64028 -1.15421,-1.52644 -2.77608,2.25 -1.37179,3.19414 -4.15834,3.58494 -6.56893,0.92126 z m -77.65499,-7.737 c 0,-1.62994 2.26525,-4.43426 3.58187,-4.43426 1.27165,0 1.2264,0.39172 -0.28519,2.46858 -1.67514,2.30158 -3.29668,3.26844 -3.29668,1.96568 z m 6,-3.43426 c 0,-0.55 0.45,-1 1,-1 0.55,0 1,0.45 1,1 0,0.55 -0.45,1 -1,1 -0.55,0 -1,-0.45 -1,-1 z m 22.44192,-18.37537 c -0.41344,-1.64728 -0.23853,-3.22802 0.4313,-3.89785 0.83571,-0.83571 1.12678,-0.55847 1.12678,1.07322 0,2.57539 0.59786,2.74499 2.6041,0.73875 1.20597,-1.20596 1.23882,-1.81741 0.18803,-3.5 -0.70027,-1.12131 -1.63081,-2.03875 -2.06786,-2.03875 -0.43705,0 -0.30055,-0.92321 0.30334,-2.05158 0.60388,-1.12838 0.906,-3.04088 0.67136,-4.25 -0.3756,-1.93557 -0.44289,-1.88881 -0.56279,0.39106 -0.21909,4.16607 -6.53342,6.37042 -9.56475,3.33909 -0.86429,-0.86428 -1.57143,-1.10512 -1.57143,-0.53518 0,1.46401 3.40208,3.10661 6.43426,3.10661 1.41116,0 2.56574,0.45 2.56574,1 0,1.51485 -6.23722,1.13524 -8.41419,-0.5121 -1.69622,-1.28356 -1.78304,-1.88623 -0.76249,-5.29254 0.6909,-2.30602 2.1433,-4.37472 3.63006,-5.17041 1.3631,-0.72951 2.21936,-1.74546 1.9028,-2.25766 -0.31656,-0.51221 -1.87621,0.3148 -3.46587,1.8378 -3.21403,3.07924 -4.05625,1.56085 -0.89031,-1.60509 2.01399,-2.01399 8,-2.81267 8,-1.06739 0,0.51294 0.9,1.21826 2,1.56739 1.70392,0.5408 2,1.51303 2,6.56739 0,4.60676 0.33523,5.93261 1.5,5.93261 0.825,0 1.48382,0.7875 1.46404,1.75 -0.0454,2.20899 -4.94578,8.36601 -4.97439,6.25 -0.0175,-1.29567 -0.14505,-1.30277 -0.93625,-0.0522 -0.71582,1.13145 -1.06797,0.84229 -1.61148,-1.32322 z m 0.20094,-12.12463 c 1.33333,-1.33333 1.33333,-1.66667 0,-3 -1.85021,-1.8502 -3.58362,-1.86007 -5.99385,-0.0341 -1.5717,1.1907 -1.64715,1.63283 -0.5,2.93016 1.73811,1.96568 4.58652,2.01128 6.49385,0.10395 z m 2.27381,-4.78297 c -0.22917,-0.15563 -1.31667,-0.94313 -2.41667,-1.75 -1.85001,-1.35701 -1.89707,-1.33579 -0.62756,0.28297 0.75485,0.9625 1.84235,1.75 2.41667,1.75 0.57432,0 0.85672,-0.12734 0.62756,-0.28297 z m -51.86256,10.84817 c -1.01631,-1.22458 -0.33831,-1.37985 4.62756,-1.05977 4.46835,0.28801 4.89024,0.21487 1.81833,-0.3152 l -4,-0.69023 -0.28433,-12.5 c -0.1829,-8.04037 -0.60946,-11.97518 -1.19563,-11.02896 -1.30179,2.10139 -1.94291,0.94122 -0.94187,-1.70439 1.51465,-4.00296 3.86605,-1.70258 3.65417,3.57487 -0.10286,2.56216 -0.0847,8.19705 0.0403,12.52198 l 0.22736,7.8635 3.25,-0.48488 c 3.93106,-0.58648 7.75,0.69584 7.75,2.60229 0,2.58887 -12.93372,3.64531 -14.94589,1.22079 z m 62.91225,0.61451 c -5.60112,-2.48243 -6.4169,-3.92437 -6.75255,-11.93556 -0.23368,-5.57732 -0.0335,-7.32445 0.71555,-6.24415 0.8212,1.18441 1.04324,1.21124 1.05533,0.12756 0.0123,-1.10647 0.30601,-1.13119 1.51531,-0.12756 0.90735,0.75303 1.5,2.94215 1.5,5.54066 0,7.55508 1.6779,9.28975 5.1327,5.30633 1.11407,-1.28452 1.90751,-3.80566 1.96698,-6.25 0.0859,-3.53005 0.21047,-3.75104 0.90032,-1.59699 l 0.80064,2.5 0.16307,-2.5 c 0.14883,-2.28184 0.2322,-2.32547 0.95529,-0.5 0.43573,1.1 1.09771,4.3625 1.47106,7.25 0.51862,4.01094 0.36913,5.25 -0.63338,5.25 -0.72171,0 -2.0828,0.9 -3.02465,2 -1.77082,2.06816 -3.13245,2.34677 -5.76567,1.17971 z m 4.86922,-3.69119 c 0.28996,-1.60811 0.11042,-1.74939 -0.93852,-0.73852 -3.63489,3.503 -7.89706,-0.22373 -7.89706,-6.90499 0,-2.66475 -0.4435,-4.84501 -0.98555,-4.84501 -0.57064,0 -0.80093,1.99977 -0.54701,4.75 0.34602,3.74783 1.0984,5.3424 3.56604,7.55782 3.48105,3.12524 6.25787,3.199 6.8021,0.1807 z m 4.16442,-2.38153 c 0,-1.26299 -2.82608,-2.19742 -3.47421,-1.14873 -0.29604,0.47901 0.0271,1.09883 0.71798,1.37738 1.98148,0.79886 2.75623,0.73458 2.75623,-0.22865 z m -51.26088,4.77705 c 1.78151,-0.51457 4.21557,-2.25632 5.40902,-3.87054 2.37391,-3.21088 3.78779,-3.10558 3.96786,0.29552 0.0649,1.22527 0.28869,1.52983 0.50779,0.69098 0.21548,-0.825 0.007,-3.525 -0.4628,-6 -0.84568,-4.45305 -0.86275,-4.4687 -1.63661,-1.5 -1.49649,5.74092 -8.41213,10.86481 -9.78522,7.25 -0.99427,-2.61753 0.56356,-7.63571 3.30073,-10.63253 1.56605,-1.71461 2.50118,-3.11747 2.07805,-3.11747 -1.2406,0 -4.91328,4.28904 -5.99449,7.00051 -0.85899,2.1542 -1.00543,2.22014 -1.06006,0.47733 -0.0984,-3.13998 5.6369,-9.47784 8.5768,-9.47784 2.00298,0 2.37476,0.37755 1.88652,1.91584 -0.33444,1.05372 -0.14491,2.20209 0.42116,2.55194 0.61235,0.37845 0.78801,0.007 0.43369,-0.91584 -0.32755,-0.85357 -0.0863,-1.55194 0.5362,-1.55194 1.70095,0 2.80337,3.76751 3.21385,10.98333 0.31014,5.4519 0.1024,6.52819 -1.31376,6.80655 -1.24485,0.24468 -1.79034,-0.52991 -2.09835,-2.97962 -0.37594,-2.99004 -0.49052,-3.09261 -1.18448,-1.06026 -0.42256,1.2375 -1.3908,2.25 -2.15165,2.25 -0.76085,0 -1.38337,0.45 -1.38337,1 0,0.55 -1.4625,0.95942 -3.25,0.90981 l -3.25,-0.0902 3.23912,-0.93558 z m 3.01491,-5.29645 c 2.74095,-2.89153 3.97541,-8.01874 2.1955,-9.11878 -2.20246,-1.3612 -7.28957,7.10894 -6.17481,10.28119 0.62378,1.77508 1.41345,1.54441 3.97931,-1.16241 z m 10.88189,1.77284 c -1.06023,-7.73524 -0.77885,-11.36835 0.9313,-12.0246 0.86197,-0.33077 2.07697,-0.0916 2.7,0.53139 0.84371,0.84371 0.69896,1.13278 -0.56722,1.13278 -1.45673,0 -1.67969,1.03749 -1.55809,7.25 0.11532,5.89187 0.26038,6.50069 0.77435,3.25 0.53654,-3.39339 0.71044,-3.62087 1.14672,-1.5 0.70178,3.41154 0.0545,6 -1.50038,6 -0.77749,0 -1.54362,-1.84491 -1.92668,-4.63957 z m 42.36408,3.59426 c 0,-0.63949 1.27219,-0.80665 3.27687,-0.43057 2.47757,0.46479 3.94111,0.0922 6,-1.52727 2.88803,-2.27172 3.54053,-1.65743 1.33108,1.25315 -1.48045,1.95026 -10.60795,2.5566 -10.60795,0.70469 z m -3,-2.4605 c 0,-1.44408 0.25832,-1.52469 1.52289,-0.47519 1.28356,1.06526 1.41689,0.98764 0.84837,-0.49389 -0.58253,-1.51804 -0.39004,-1.60553 1.41137,-0.64144 3.01688,1.61458 6.27031,1.37301 8.53414,-0.63367 1.91573,-1.69813 1.93925,-1.68331 0.79356,0.5 -0.89876,1.71272 -2.06776,2.25326 -4.89551,2.26365 -2.04315,0.008 -4.72732,0.285 -5.96482,0.61664 -1.70195,0.4561 -2.25,0.17938 -2.25,-1.1361 z m -74.28975,-1.49419 c 0.28766,-1.1 0.69553,-2 0.90638,-2 0.21085,0 0.38337,0.9 0.38337,2 0,1.1 -0.40787,2 -0.90638,2 -0.49851,0 -0.67103,-0.9 -0.38337,-2 z m 15.30506,-0.75 c -0.008,-1.2375 0.43469,-2.25 0.98469,-2.25 1.25292,0 1.25292,1.06124 0,3 -0.78387,1.21296 -0.9723,1.06944 -0.98469,-0.75 z m 61.96938,-2 c -0.0132,-1.51008 -0.16072,-1.54436 -1.07589,-0.25 -0.78692,1.11295 -0.94115,0.2519 -0.59773,-3.33696 0.51976,-5.43155 -0.93847,-5.12051 -1.57974,0.33696 -0.39764,3.38414 -0.41655,3.36156 -0.57129,-0.68191 -0.13647,-3.56609 0.26765,-4.48644 2.74433,-6.25 4.78845,-3.40967 11.14782,-2.32811 11.06522,1.88191 -0.025,1.27593 -0.21063,1.24057 -1.04969,-0.2 -1.05517,-1.81162 -7.32928,-2.51465 -8.30807,-0.93094 -0.27841,0.45048 0.76674,0.63222 2.32256,0.40388 1.60594,-0.2357 3.1637,0.12675 3.60356,0.83846 0.56653,0.91667 0.16418,1.09397 -1.49681,0.65961 -2.80108,-0.7325 -6.04114,1.15514 -6.04114,3.51954 0,2.35131 4.56167,2.36512 5.87531,0.0178 0.53608,-0.95792 1.29756,-1.41879 1.69219,-1.02417 0.94919,0.94918 -1.43671,3.76582 -3.18994,3.76582 -0.75766,0 -1.37756,0.50175 -1.37756,1.11501 0,1.28564 4.85947,-1.63651 6.7182,-4.03987 1.0993,-1.42142 1.2213,-1.411 1.25,0.10677 0.0392,2.07374 -5.02734,5.81809 -7.87257,5.81809 -1.32334,0 -2.10127,-0.64492 -2.11094,-1.75 z m -76.69868,-5.75 c 0.008,-2.75 0.20172,-3.75631 0.43157,-2.23625 0.22986,1.52006 0.22371,3.77006 -0.0136,5 -0.23736,1.22994 -0.42542,-0.0137 -0.41792,-2.76375 z m 30.71399,-14.01708 c 0,-2.25195 0.33119,-2.40547 4.75,-2.20183 4.00863,0.18474 4.75,0.53074 4.75,2.21682 0,1.68818 -0.73637,2.02952 -4.75,2.20183 -4.41469,0.18953 -4.75,0.033 -4.75,-2.21682 z m 23.33455,-12.17757 c -2.33578,-0.45551 -4.12724,-3.54112 -2.39178,-4.11961 0.58148,-0.19382 1.05723,-1.82016 1.05723,-3.61409 0,-3.02445 3.2608,-7.64418 4.51226,-6.39272 0.275,0.275 -0.40276,1.31698 -1.50613,2.31552 -2.52011,2.28067 -2.59237,6.12143 -0.13986,7.43398 3.54261,1.89594 7.617,-0.72257 10.66163,-6.85198 3.61671,-7.28111 5.25191,-9.07645 8.26684,-9.07645 3.17072,0 5.10106,2.55347 5.29177,7 0.0826,1.925 0.48886,4.85 0.90287,6.5 0.41401,1.65 0.51626,-2.9625 0.22721,-10.25 -0.3023,-7.62175 -0.14133,-13.24901 0.37894,-13.24766 0.49746,10e-4 1.06418,5.90805 1.25938,13.12614 0.27722,10.25075 0.0583,13.31176 -1,13.98235 -1.33302,0.84467 -1.26234,0.87797 1.89509,0.89266 0.4125,0.002 0.79388,-2.81058 0.8475,-6.25 0.0536,-3.43942 0.43253,-9.34314 0.842,-13.11937 0.52413,-4.83358 0.42466,-6.6682 -0.33604,-6.19806 -0.66974,0.41392 -0.85414,0.0778 -0.48502,-0.88412 1.60024,-4.17016 2.19942,-0.23708 2.04778,13.44176 l -0.16622,14.99371 -4.14496,0.006 c -4.10681,0.006 -4.14848,-0.0305 -4.52643,-3.9937 -0.43387,-4.54958 -0.1563,-4.97559 1.14023,-1.75 l 0.90439,2.25 0.0634,-2.19098 c 0.0349,-1.20504 -0.41497,-2.48663 -0.99962,-2.84796 -1.20338,-0.74373 -4.95375,2.27169 -4.90519,3.94393 0.0175,0.60225 0.6925,0.2215 1.5,-0.84612 1.14466,-1.51337 1.4682,-1.60262 1.4682,-0.40499 0,0.84488 -0.9763,2.39339 -2.16957,3.44113 -1.99247,1.7495 -2.11637,1.75929 -1.51794,0.11995 0.53727,-1.47177 0.17217,-1.73501 -2.08043,-1.5 -2.63348,0.27475 -2.7263,0.12266 -2.5724,-4.21496 l 0.15967,-4.5 -1.77429,4.02781 c -1.68361,3.82218 -5.20198,6.47248 -8.59211,6.47248 -0.79912,0 -1.45295,0.43004 -1.45295,0.95564 0,0.53158 1.77498,0.32939 4,-0.45564 4.08874,-1.44259 5.55523,-0.4027 2.06574,1.46482 -1.93061,1.03323 -4.6377,1.13881 -8.73119,0.34053 z m 0.66545,-2.74633 c 0,-0.24254 -0.45,-0.7191 -1,-1.05902 -0.55,-0.33992 -1,-0.14148 -1,0.44098 0,0.58246 0.45,1.05902 1,1.05902 0.55,0 1,-0.19844 1,-0.44098 z m 18.5,-4.55902 c 0.34913,-1.1 1.05445,-2 1.56739,-2 0.51293,0 0.93261,-1.575 0.93261,-3.5 0,-4.03954 -1.08482,-4.39871 -3.96104,-1.31144 -1.12143,1.20371 -2.03896,1.67124 -2.03896,1.03896 0,-0.63229 0.98485,-2.06714 2.18856,-3.18856 1.20371,-1.12143 1.70881,-2.03896 1.12245,-2.03896 -2.08973,0 -3.56072,3.0756 -3.82645,8.00048 -0.23049,4.27179 -0.004,4.99952 1.55545,4.99952 1.00387,0 2.11086,-0.9 2.45999,-2 z m -75.14326,5.48727 c -0.31927,-0.83201 -0.055,-2.14595 0.58733,-2.91988 0.64231,-0.77393 1.61936,-5.82065 2.17123,-11.21493 0.55188,-5.39429 1.34703,-10.04284 1.767,-10.33013 0.41997,-0.28728 1.05414,-1.30983 1.40926,-2.27233 1.02459,-2.77701 4.47211,-2.1077 6.18276,1.20034 0.83912,1.62269 1.52568,3.59954 1.52568,4.39301 0,0.79347 0.57645,1.66388 1.28099,1.93424 0.70455,0.27036 2.07754,3.0185 3.0511,6.10698 2.1213,6.72954 3.14481,7.28133 2.23348,1.2041 -0.36384,-2.42623 -0.24968,-4.66587 0.25369,-4.97696 0.50336,-0.3111 1.19995,1.5118 1.54797,4.0509 0.70347,5.13238 0.66031,12.83057 -0.0566,10.08739 -0.25148,-0.9625 -1.09928,-1.75 -1.88395,-1.75 -0.78468,0 -1.42668,-0.68111 -1.42668,-1.51357 0,-0.83246 -0.40249,-2.29496 -0.89443,-3.25 -0.49194,-0.95504 -2.54152,-5.22393 -4.55463,-9.48643 -2.0131,-4.2625 -3.97736,-7.75 -4.36502,-7.75 -1.54169,0 -3.09526,4.07651 -3.74617,9.82981 l -0.68529,6.05716 5.37277,0.30651 c 5.28494,0.30151 5.38775,0.36714 6.28905,4.01522 0.50395,2.03978 1.62895,3.90008 2.5,4.134 1.00856,0.27084 0.77697,0.46743 -0.63769,0.5413 -1.70853,0.0892 -2.41461,-0.63436 -3.05822,-3.134 -0.75251,-2.92257 -1.24783,-3.28043 -4.91638,-3.55201 l -4.07955,-0.30202 -1.21196,5.05202 c -1.20578,5.02624 -3.43488,6.72079 -4.65574,3.53928 z m 3.61263,-4.48727 c 0,-1.33333 -0.1077,-1.33333 -0.96937,0 -0.53316,0.825 -0.96937,2.175 -0.96937,3 0,1.33333 0.1077,1.33333 0.96937,0 0.53316,-0.825 0.96937,-2.175 0.96937,-3 z m 27.85383,0.85501 c -0.28488,-3.41923 -1.13133,-6.306 -2.14676,-7.32143 -0.92204,-0.92204 -1.67644,-2.09429 -1.67644,-2.60501 0,-3.31316 4.97699,2.97834 5.14983,6.50999 l 0.14983,3.06144 0.43025,-3 c 0.23663,-1.65 1.37265,-4.0125 2.52448,-5.25 1.15183,-1.2375 1.59235,-2.25 0.97894,-2.25 -0.61341,0 -1.39239,0.44835 -1.73106,0.99633 -0.3877,0.62732 -1.70589,0.43261 -3.55902,-0.52568 -3.51473,-1.81753 -4.02272,-3.83156 -0.64224,-2.54631 1.26555,0.48117 4.38643,0.63979 6.93529,0.35249 4.57725,-0.51592 4.65353,-0.47626 6.19899,3.22254 0.86059,2.05968 1.56471,6.19622 1.56471,9.1923 0,5.0772 -0.15292,5.42571 -2.25,5.12788 -1.94974,-0.27691 -2.333,-1.09203 -2.87198,-6.10819 -0.70375,-6.54976 -0.94494,-7.00665 -3.23489,-6.12791 -1.14016,0.43752 -1.66464,1.89872 -1.71342,4.77354 -0.0387,2.27865 -0.45702,5.04301 -0.92971,6.14301 l -0.85943,2 -0.14057,-2 -0.14057,-2 -0.78295,2 c -0.56697,1.44828 -0.9127,0.44278 -1.25328,-3.64499 z m 12.64287,-1.60501 c -0.71124,-6.0332 -2.88776,-10.72545 -4.51,-9.72285 -1.47475,0.91145 -1.1313,2.47285 0.54393,2.47285 1.04561,0 1.53587,1.13596 1.61842,3.75 0.0651,2.0625 0.0591,4.10573 -0.0135,4.54051 -0.16902,1.01279 1.79509,4.70949 2.50222,4.70949 0.29522,0 0.23174,-2.5875 -0.14107,-5.75 z m 4.2006,6.08333 c -0.36667,-0.36666 -0.61617,-3.40416 -0.55445,-6.75 l 0.11222,-6.08333 1.18913,5.5 c 0.69858,3.2311 1.44477,4.88121 1.80883,4 0.38457,-0.93084 0.64966,-0.45655 0.69865,1.25 0.0745,2.59512 -1.64307,3.69465 -3.25438,2.08333 z m 21.60236,-0.0263 c 0.97297,-0.25354 2.32297,-0.23687 3,0.0371 0.67703,0.27393 -0.11903,0.48137 -1.76903,0.46099 -1.65,-0.0204 -2.20394,-0.2445 -1.23097,-0.49804 z m 20.91724,-2.02408 c -2.27871,-2.83197 -3.16723,-11.28295 -1.18627,-11.28295 0.55,0 1,-0.60526 1,-1.34501 0,-2.27445 3.49219,-4.65499 6.82874,-4.65499 3.36013,0 7.17126,2.92295 7.17126,5.5 0,2.22942 -1.3874,1.81533 -2.51287,-0.75 -1.63639,-3.72988 -10.48713,-3.35527 -10.48713,0.44387 0,0.52194 0.70714,0.24184 1.57143,-0.62244 1.77907,-1.77907 5.98364,-2.10037 6.95334,-0.53135 0.41241,0.66728 -0.23178,0.82058 -1.79723,0.42767 -3.00614,-0.75449 -5.72754,1.67049 -5.72754,5.10368 0,1.33571 -0.45642,2.42857 -1.01426,2.42857 -0.58332,0 -0.78401,-1.30699 -0.47233,-3.07612 0.36737,-2.08527 0.18903,-2.85801 -0.55365,-2.39901 -1.69939,1.05028 -0.69312,7.74177 1.49296,9.92785 2.39554,2.39554 9.14919,2.4747 11.18489,0.1311 0.75324,-0.86717 0.82793,-1.12828 0.16596,-0.58025 -1.8691,1.54742 -9.3856,1.20498 -10.79375,-0.49174 -1.01017,-1.21718 -0.8959,-1.59843 0.62756,-2.09373 5.19018,-1.68741 7.36262,-2.7485 7.36262,-3.59612 0,-0.51447 -1.00013,-0.23487 -2.22251,0.62132 -1.22237,0.85618 -2.89718,1.5567 -3.72178,1.5567 -0.8246,0 0.063,-1.07749 1.97251,-2.39442 1.90948,-1.31693 3.61335,-2.01721 3.78639,-1.55617 0.17303,0.46103 1.07303,0.55426 2,0.20718 1.51037,-0.56552 1.53472,-0.42988 0.23447,1.30618 -2.38969,3.19066 -4.29983,4.43723 -6.79923,4.43723 -1.48584,0 -2.11136,0.41507 -1.67922,1.11428 0.86303,1.39641 8.43432,0.49574 9.43433,-1.1223 0.4919,-0.79591 0.92476,-0.6175 1.37999,0.56879 1.15248,3.00332 -2.1408,5.43923 -7.35367,5.43923 -3.86548,0 -5.03101,-0.46265 -6.84501,-2.71707 z m -66.42262,-0.28295 c -0.9955,-3.37989 -0.92769,-9.19278 0.12666,-10.85676 1.35044,-2.13126 1.67024,-0.17207 1.11924,6.85676 -0.38534,4.91555 -0.68904,5.89059 -1.2459,4 z m 25.26676,-9.75 c -0.0167,-1.2375 -0.48041,-2.25 -1.03041,-2.25 -0.55,0 -1,-0.45 -1,-1 0,-1.54501 2.99319,-1.18131 3.61507,0.43926 0.30376,0.7916 0.0783,2.2541 -0.50098,3.25 -0.96337,1.65618 -1.05587,1.61868 -1.08368,-0.43926 z m -40.78041,-2.01368 c -2.39962,-0.40039 -2.6094,-1.18933 -1.625,-6.11132 0.83915,-4.19575 3.00482,-3.94674 4.88874,0.56213 1.7737,4.24505 0.62505,6.19804 -3.26374,5.54919 z m 2.14195,-4.81081 -0.70539,-2.81049 -0.87456,2.36414 c -0.60253,1.62881 -0.48503,2.60488 0.37776,3.13812 1.76201,1.08898 2.01111,0.53122 1.20219,-2.69177 z m 42.60805,3.63351 c 0,-0.51754 0.44485,-1.21592 0.98855,-1.55194 0.56686,-0.35034 0.7345,0.0511 0.39301,0.94098 -0.66479,1.73242 -1.38156,2.04939 -1.38156,0.61096 z m 6.51008,-0.0753 c 0.34546,-0.55897 1.04702,-0.75742 1.55902,-0.44098 0.51199,0.31643 0.9309,0.0988 0.9309,-0.48369 0,-0.58249 -1.125,-1.05905 -2.5,-1.05905 -1.375,0 -2.5,-0.45 -2.5,-1 0,-1.67243 5.72802,-1.15116 6.39301,0.58179 1.0562,2.75242 0.67599,3.41821 -1.95203,3.41821 -1.47875,0 -2.29386,-0.42903 -1.9309,-1.01631 z m -14.51008,-9.48372 c 0,-3.0441 0.31795,-3.5 2.44098,-3.5 3.00129,0 3.93652,1.35978 3.13411,4.55684 -0.44414,1.76959 -1.29718,2.44316 -3.09414,2.44316 -2.1687,0 -2.48095,-0.4405 -2.48095,-3.5 z m 4,-0.059 c 0,-0.79256 -0.63287,-1.441 -1.40638,-1.441 -0.9114,0 -1.22334,0.69995 -0.88631,1.98875 0.5691,2.17625 2.29269,1.76445 2.29269,-0.54777 z m 36.07895,0.97569 c 0.048,-1.16495 0.28494,-1.4019 0.60416,-0.60417 0.28887,0.72187 0.25335,1.58437 -0.0789,1.91667 -0.3323,0.33229 -0.56864,-0.25834 -0.52522,-1.3125 z m -116.40247,-9.14002 c -1.55293,-0.23302 -3.65818,-1.1781 -4.67832,-2.10017 -3.70977,-3.35312 -4.93872,-4.1765 -6.23371,-4.1765 -0.72598,0 -2.09057,-0.90001 -3.03242,-2.00001 -0.94185,-1.1 -2.32615,-2 -3.07622,-2 -0.75007,0 -2.66697,-1.23169 -4.25979,-2.73709 -3.36464,-3.18 -5.96585,-4.68713 -9.71267,-5.62753 -1.475838,-0.37041 -2.683348,-1.14704 -2.683348,-1.72585 0,-1.50795 -2.23406,-3.53164 -4.79664,-4.34498 -1.21185,-0.38462 -2.20336,-1.02085 -2.20336,-1.41382 0,-0.39298 -1.2375,-0.813674 -2.75,-0.934876 -1.5125,-0.121203 -3.24961,-0.894351 -3.86025,-1.718108 -0.61063,-0.823757 -2.26133,-1.49774 -3.66821,-1.49774 -3.86541,0 -5.72154,-1.007942 -5.72154,-3.106989 0,-1.120069 -0.71455,-1.910302 -1.75,-1.935358 -0.9625,-0.02329 -2.8539,-1.37329 -4.2031,-3 -2.57524,-3.104936 -7.04691,-4.072661 -7.04691,-1.525041 0,0.787937 -1.0125,1.72811 -2.25,2.089274 -4.98458,1.454748 -7.65397,3.002904 -8.09667,4.695797 -0.33161,1.268064 -1.44525,1.782317 -3.85971,1.782317 -1.86649,0 -3.89573,0.502117 -4.50943,1.115816 -1.32719,1.327187 -4.57189,3.256169 -9.03419,5.370858 -1.7875,0.84709 -3.25,1.9666 -3.25,2.48779 0,1.55393 -4.08985,4.89062 -8.77378,7.15807 -2.41307,1.16814 -4.62427,2.7412 -4.91379,3.49568 -0.28952,0.75448 -1.04076,1.38911 -1.66942,1.4103 -0.62865,0.0212 -2.05231,1.48369 -3.16368,3.25 -2.7835905,4.42402 -7.3203805,4.53012 -9.3863905,0.21951 -0.78871,-1.64558 -2.01458998,-3.57254 -2.72418998,-4.28214 -3.22129002,-3.22129 -2.39879002,-12.22588 1.11674998,-12.22588 0.77832,0 1.77498,-0.60836 2.21481,-1.35192 0.43983,-0.74356 2.56262,-3.400078 4.71731,-5.903385 3.0148405,-3.502622 4.4551005,-4.454004 6.2500005,-4.128526 1.35382,0.245493 2.33238,-0.06733 2.33238,-0.745597 0,-1.435719 6.50015,-7.870576 7.95044,-7.870576 0.57726,0 1.04956,-0.45 1.04956,-1 0,-0.55 0.85186,-1 1.89301,-1 1.04116,0 2.15204,-0.675 2.46862,-1.5 0.36128,-0.941494 1.89047,-1.5 4.10699,-1.5 2.47234,0 3.53138,-0.449842 3.53138,-1.5 0,-0.891417 0.9181,-1.5 2.26287,-1.5 1.38754,0 2.64472,-0.87036 3.25,-2.25 0.72028,-1.64175 1.73055,-2.195137 3.73713,-2.047054 1.5125,0.11162 2.75,-0.22588 2.75,-0.75 0,-0.52412 1.07686,-0.952946 2.39301,-0.952946 1.31616,0 2.6506,-0.671247 2.96542,-1.491661 0.31482,-0.820413 1.60047,-1.460817 2.85699,-1.42312 1.25652,0.0377 3.96218,-0.366432 6.01258,-0.898065 3.98757,-1.03391 10.85915,0.574264 11.57034,2.70784 0.20258,0.607753 1.44726,1.105006 2.76595,1.105006 1.71669,0 2.57394,0.702556 3.01849,2.47379 0.45533,1.814171 1.50447,2.639551 3.9346,3.095448 2.35438,0.441683 3.48202,1.29219 3.89503,2.937781 0.44419,1.769803 1.52433,2.475445 4.57921,2.991565 2.19885,0.371492 4.25183,1.086285 4.56217,1.588428 0.31034,0.502144 1.41265,0.912988 2.449588,0.912988 1.03693,0 3.59787,1.57285 5.69098,3.495222 2.09311,1.922373 4.09284,3.497373 4.44385,3.5 0.35101,0.0026 2.68896,2.026528 5.19545,4.497555 2.50648,2.471028 4.83335,4.046028 5.17081,3.5 0.33747,-0.546027 1.67626,-0.992777 2.9751,-0.992777 1.81083,0 2.51518,0.699589 3.02044,3.000004 0.50055,2.27899 1.21494,3 2.97247,3 1.27245,0 2.57257,0.675 2.88916,1.5 0.31658,0.825 1.10062,1.5 1.74231,1.5 0.6417,0 2.20933,1.125 3.48364,2.5 1.27431,1.37499 2.95831,2.49999 3.74223,2.49999 2.84179,0 3.94245,2.64501 2.68551,6.45358 -0.64093,1.94205 -1.74089,3.87197 -2.44434,4.28872 -0.70346,0.41674 -1.81054,1.77021 -2.46018,3.00771 -1.17615,2.24044 -2.3099,2.44565 -8.43432,1.52665 z m 7.40291,-5.02665 c 0.77954,-1.5125 1.98058,-3.10987 2.66898,-3.5497 2.15253,-1.37529 1.37089,-3.63331 -1.49837,-4.32855 -1.5125,-0.36649 -4.40505,-2.3849 -6.4279,-4.48535 -2.02284,-2.10046 -3.84983,-3.30322 -4.05997,-2.6728 -0.76351,2.29055 -3.66871,-0.19869 -4.32695,-3.70744 -0.62264,-3.318929 -0.80812,-3.478632 -2.38392,-2.05256 -2.22143,2.01035 -5.05126,1.9839 -5.05126,-0.0472 0,-0.876488 -0.9,-1.828973 -2,-2.116629 -1.1,-0.287656 -2,-0.920528 -2,-1.40638 0,-0.485853 -0.48752,-0.883369 -1.08337,-0.883369 -0.59585,0 -2.6129,-1.575 -4.48233,-3.5 -1.86943,-1.925 -3.75691,-3.5 -4.19439,-3.5 -0.43749,0 -1.56603,-0.9 -2.50788,-2 -1.08969,-1.272667 -2.949938,-2 -5.115248,-2 -2.10223,0 -3.62281,-0.573313 -3.97841,-1.5 -0.31658,-0.825 -1.47389,-1.5 -2.5718,-1.5 -1.09792,0 -2.47827,-0.900742 -3.06746,-2.00165 -0.58918,-1.100907 -2.63002,-2.652945 -4.53518,-3.448973 -1.90516,-0.796028 -3.46393,-1.867802 -3.46393,-2.381719 0,-0.513917 -0.7875,-1.219071 -1.75,-1.567008 -1.64973,-0.596364 -3.80482,-1.813403 -7.25001,-4.094274 -2.16039,-1.430282 -5.85876,-1.316824 -6.43988,0.197561 -0.27354,0.712835 -1.83491,1.296063 -3.46972,1.296063 -1.6348,0 -3.23833,0.430347 -3.56341,0.956326 -0.32507,0.525979 -1.25163,0.702834 -2.05901,0.393011 -0.80739,-0.309823 -1.46798,-0.113953 -1.46798,0.435266 0,0.54922 -1.16193,1.290207 -2.58207,1.64664 -1.42014,0.356432 -3.6186,1.853092 -4.88546,3.32591 -1.982,2.304206 -2.52867,2.490886 -3.91793,1.337904 -1.37322,-1.139671 -1.61454,-1.097447 -1.61454,0.282498 0,1.063941 -0.86059,1.622445 -2.5,1.622445 -1.375,0 -2.5,0.45 -2.5,1 0,0.55 -0.62685,1 -1.39301,1 -0.76615,0 -1.62748,0.611015 -1.91405,1.35781 -0.28657,0.746796 -1.85239,1.62408 -3.47959,1.94952 -3.02293,0.604586 -8.45509,5.274304 -9.59696,8.249952 -0.43745,1.139978 -1.34407,1.476897 -2.91396,1.08288 -1.70028,-0.426742 -2.77705,0.103558 -4.24068,2.08849 -1.0789605,1.463256 -3.8742505,4.534446 -6.2117505,6.824866 -4.25033998,4.16473 -5.64438998,8.44648 -2.75,8.44648 0.825,0 1.5,0.46445 1.5,1.03212 0,0.56766 0.68363,2.66826 1.51917,4.66799 l 1.51916,3.63587 1.98084,-2.12618 c 1.08946,-1.16939 1.9808305,-2.51219 1.9808305,-2.98399 0,-1.6416 7.03737,-7.07511 10.00883,-7.72775 1.64515,-0.36133 2.99117,-1.04089 2.99117,-1.51013 0,-0.46923 0.89896,-1.13847 1.99768,-1.48719 1.09872,-0.34872 2.26272,-1.69005 2.58666,-2.98073 0.3447,-1.37339 1.58992,-2.59791 3.00232,-2.9524 1.32734,-0.333142 2.41334,-1.047139 2.41334,-1.58666 0,-0.539521 0.64286,-0.980948 1.42857,-0.980948 0.78572,0 2.02322,-0.5625 2.75,-1.25 2.48226,-2.348076 6.68758,-4.018267 8.75573,-3.477434 1.4096,0.36862 2.0657,0.06377 2.0657,-0.959805 0,-0.825 0.9,-1.735356 2,-2.023012 1.1,-0.287656 2,-0.870447 2,-1.295089 0,-0.424643 1.54566,-1.062044 3.43479,-1.416448 2.53709,-0.475962 3.51716,-1.223765 3.75,-2.86129 0.51383,-3.613792 5.55978,-3.485155 9.62693,0.245421 1.82145,1.670711 3.90436,3.037657 4.62868,3.037657 0.72433,0 1.87615,1.35 2.55961,3 0.68345,1.65 1.75054,3.0375 2.37132,3.083333 4.51327,0.333227 6.07512,0.755998 6.40064,1.732563 0.20548,0.616432 1.91585,1.410113 3.80082,1.763735 1.88497,0.353623 3.42722,1.012545 3.42722,1.464272 0,0.451727 1.0125,1.137389 2.25,1.523695 1.2375,0.3863 3.32386,1.76663 4.63636,3.06738 1.312498,1.30076 3.239128,2.36502 4.281388,2.36502 1.04226,0 2.15404,0.675 2.47062,1.5 0.31659,0.825 1.18663,1.5 1.93344,1.5 0.7468,0 1.83949,0.9 2.42819,2 0.5887,1.1 1.95453,2 3.03518,2 1.08065,0 1.96482,0.45 1.96482,1 0,0.55 0.94213,1 2.09362,1 1.25262,0 2.30371,0.8034 2.61663,2 0.32127,1.22854 1.36402,2 2.70329,2 1.19916,0 3.28417,1.33094 4.63337,2.95765 3.42134,4.12506 8.98117,4.27239 11.03248,0.29235 z M 59.595562,44.436761 c 0,-0.567261 -0.7875,-1.329582 -1.75,-1.694046 -2.5024,-0.94757 -4.25,-2.881495 -4.25,-4.70314 0,-0.864286 -0.40373,-1.571429 -0.89717,-1.571429 -0.49344,0 -2.29344,-1.225208 -4,-2.722684 -2.72442,-2.390639 -3.10283,-3.357571 -3.10283,-7.928572 0,-3.294122 0.55085,-5.756734 1.5,-6.705888 0.825,-0.825 1.5,-1.913006 1.5,-2.41779 0,-1.938925 3.00085,-6.7919229 5.08597,-8.2250659 1.20031,-0.825 3.0008,-2.349595 4.00109,-3.387989 1.4025,-1.455924 2.72895,-1.7659 5.79617,-1.3545 2.1876,0.293419 4.5713,1.037502 5.29711,1.653518 5.20281,4.415754 6.51455,6.0873629 7.76326,9.8930789 1.79806,5.47998 1.9849,16.666873 0.30641,18.345668 -0.6875,0.687623 -1.25,2.079864 -1.25,3.093868 0,1.014004 -1.06795,2.995373 -2.37321,4.403041 -2.00772,2.165237 -2.6986,2.385254 -4.48606,1.428637 -1.74709,-0.935015 -2.4134,-0.779741 -3.84903,0.896958 -1.81546,2.120299 -5.29171,2.774816 -5.29171,0.996335 z m 6.96636,-5.968615 c 1.57684,0 3.09395,0.5625 3.37136,1.25 0.31851,0.789349 0.53348,0.644517 0.58334,-0.393011 0.0434,-0.903656 0.75395,-1.902033 1.57895,-2.218615 0.825,-0.316583 1.5,-1.46317 1.5,-2.547972 0,-1.084803 0.45,-2.250483 1,-2.590402 2.31884,-1.433123 0.46012,-16.500001 -2.03552,-16.500001 -0.39297,0 -0.98448,-1.35 -1.31448,-3 -0.33001,-1.65 -1.23116,-2.9999989 -2.00256,-2.9999989 -0.77141,0 -1.96276,-0.675 -2.64745,-1.5 -1.60849,-1.938111 -5.89465,-1.938111 -6.63837,0 -0.31658,0.825 -1.20246,1.5 -1.96862,1.5 -2.11976,0 -5.02644,3.3592709 -6.33349,7.3196569 -0.64459,1.953141 -1.52673,3.692732 -1.9603,3.865755 -0.43357,0.173023 -1.05001,1.971565 -1.36988,3.99676 -0.6355,4.023541 1.60623,7.817828 4.61891,7.817828 0.92494,0 1.90717,1.169474 2.30137,2.740097 0.37825,1.507054 1.20614,3.258521 1.83977,3.89215 1.75555,1.755552 4.9144,2.116665 5.8103,0.66422 0.43983,-0.713057 2.08983,-1.296467 3.66667,-1.296467 z"
           style="fill:#000000" />
      </g>
    </clipPath>
  </defs>
  <sodipodi:namedview
     pagecolor="#ffffff"
     bordercolor="#666666"
     borderopacity="1"
     objecttolerance="10"
     gridtolerance="10"
     guidetolerance="10"
     inkscape:pageopacity="0"
     inkscape:pageshadow="2"
     inkscape:window-width="1920"
     inkscape:window-height="1016"
     id="namedview4"
     showgrid="false"
     inkscape:zoom="2.7245257"
     inkscape:cx="-3.8204389"
     inkscape:cy="102.39655"
     inkscape:window-x="0"
     inkscape:window-y="27"
     inkscape:window-maximized="1"
     inkscape:current-layer="svg2"
     fit-margin-top="0"
     fit-margin-left="0"
     fit-margin-right="0"
     fit-margin-bottom="0" />
  <path
     style="fill:#f8b6b3;fill-opacity:1;fill-rule:nonzero;stroke:none;stroke-width:0.37795275;stroke-miterlimit:4;stroke-dasharray:none;stroke-opacity:1"
     d="M 0,0 V 246.91602 H 151.09375 V 0 Z m 65.38281,3.060547 c 0.5776,0.006 1.23515,0.06316 2.00195,0.166015 2.1876,0.293419 4.57107,1.038281 5.29688,1.654297 5.20281,4.4157548 6.51496,6.086863 7.76367,9.892578 1.79806,5.479981 1.98513,16.666908 0.30664,18.345703 -0.6875,0.687623 -1.25,2.079745 -1.25,3.09375 0,1.014004 -1.06779,2.996629 -2.37305,4.404297 -2.00772,2.165237 -2.69887,2.384352 -4.48633,1.427735 -1.74709,-0.935015 -2.41398,-0.780215 -3.84961,0.896484 -1.81546,2.120299 -5.29101,2.776528 -5.29101,0.998047 0,-0.567262 -0.7875,-1.330849 -1.75,-1.695313 -2.5024,-0.94757 -4.25,-2.88148 -4.25,-4.703125 0,-0.864286 -0.405,-1.570312 -0.89844,-1.570312 -0.49344,0 -2.29344,-1.22518 -4,-2.722656 -2.72442,-2.390639 -3.10156,-3.358687 -3.10156,-7.929688 0,-3.294122 0.55085,-5.755924 1.5,-6.705078 0.825,-0.825 1.5,-1.913185 1.5,-2.417969 0,-1.938925 3.00082,-6.7914661 5.08594,-8.2246091 1.20031,-0.825002 2.99971,-2.3502779 4,-3.3886719 1.05187,-1.091943 2.06213,-1.539614 3.79492,-1.521484 z m 1.47461,2.955078 c -1.36557,0 -2.62228,0.486022 -2.99414,1.4550779 -0.31658,0.825001 -1.20259,1.5 -1.96875,1.5 -2.11976,0 -5.02694,3.3579741 -6.33399,7.3183591 -0.64459,1.953141 -1.52541,3.694165 -1.95898,3.867188 -0.43357,0.173023 -1.05123,1.970899 -1.3711,3.996094 -0.6355,4.02354 1.60647,7.818359 4.61914,7.818359 0.92494,0 1.90659,1.169611 2.30079,2.740234 0.37825,1.507055 1.20621,3.256996 1.83984,3.890625 1.75555,1.755552 4.91465,2.116508 5.81055,0.664063 0.43983,-0.713057 2.09113,-1.294922 3.66797,-1.294922 1.57684,0 3.09368,0.5625 3.37109,1.25 0.31851,0.789349 0.53213,0.642997 0.58203,-0.394531 0.0434,-0.903656 0.75508,-1.902168 1.58008,-2.21875 0.825,-0.316583 1.5,-1.462073 1.5,-2.546875 0,-1.084803 0.45,-2.249925 1,-2.589844 2.31884,-1.433123 0.46048,-16.5 -2.03516,-16.5 -0.39297,0 -0.98445,-1.350002 -1.31445,-3 -0.33001,-1.65 -1.23251,-3.0000001 -2.00391,-3.0000001 -0.77141,0 -1.96179,-0.675 -2.64648,-1.5 C 69.69771,6.501647 68.22299,6.015625 66.85742,6.015625 Z m 3.35937,58.824219 c 3.86027,-0.0955 8.50418,1.29186 9.08203,3.02539 0.20258,0.60776 1.44889,1.105469 2.76758,1.105469 1.71669,0 2.57303,0.701426 3.01758,2.472656 0.45533,1.81417 1.50542,2.639803 3.93555,3.095703 2.35438,0.44168 3.48152,1.29191 3.89453,2.9375 0.44419,1.7698 1.52324,2.476068 4.57812,2.992188 2.19885,0.3715 4.25216,1.08575 4.5625,1.58789 0.31034,0.50215 1.41229,0.914063 2.44922,0.914063 1.03693,0 3.5983,1.57177 5.69141,3.494141 2.09311,1.92237 4.0943,3.497399 4.44531,3.5 0.35101,0.003 2.68882,2.027016 5.19531,4.498046 2.50648,2.47103 4.83246,4.04602 5.16993,3.5 0.33745,-0.546031 1.67576,-0.992187 2.9746,-0.992187 1.81083,0 2.51623,0.69959 3.02149,3 0.50055,2.278987 1.21513,2.999997 2.97265,2.999997 1.27246,0 2.57209,0.67501 2.88868,1.5 0.31658,0.825 1.10049,1.5 1.74218,1.5 0.6417,0 2.21007,1.125 3.48438,2.5 1.27431,1.37499 2.95827,2.5 3.74219,2.5 2.84179,0 3.94248,2.64456 2.68554,6.45313 -0.64093,1.94205 -1.74186,3.87232 -2.44531,4.28906 -0.70346,0.41675 -1.8113,1.77032 -2.46094,3.00782 -1.17615,2.24044 -2.30917,2.44439 -8.43359,1.52539 -1.55293,-0.23302 -3.65759,-1.17754 -4.67773,-2.09961 -3.70977,-3.35312 -4.93939,-4.17578 -6.23438,-4.17578 -0.72598,0 -2.0894,-0.9 -3.03125,-2 -0.94185,-1.1 -2.3261,-2.00001 -3.07617,-2.00001 -0.75007,0 -2.66695,-1.23288 -4.25977,-2.73828 -3.36464,-3.18 -5.96607,-4.68655 -9.71289,-5.62695 -1.47584,-0.37041 -2.68359,-1.14775 -2.68359,-1.72656 0,-1.50795 -2.2343,-3.53041 -4.79688,-4.34375 -1.21185,-0.38462 -2.20312,-1.0211 -2.20312,-1.41407 0,-0.392976 -1.2375,-0.814343 -2.75,-0.935543 -1.5125,-0.12121 -3.25069,-0.894989 -3.86133,-1.71875 -0.61063,-0.82376 -2.26109,-1.496094 -3.66797,-1.496094 -3.86541,0 -5.7207,-1.008372 -5.7207,-3.107422 0,-1.12007 -0.71455,-1.910487 -1.75,-1.935547 -0.9625,-0.0233 -2.85393,-1.37329 -4.20313,-3 -2.57524,-3.10493 -7.04687,-4.073011 -7.04687,-1.52539 0,0.787938 -1.0125,1.728673 -2.25,2.089843 -4.98458,1.45474 -7.65496,3.002423 -8.09766,4.695313 -0.33161,1.26807 -1.44491,1.783203 -3.85937,1.783203 -1.86649,0 -3.89607,0.501534 -4.50977,1.115234 -1.32719,1.32718 -4.5709,3.256404 -9.0332,5.371093 -1.7875,0.84709 -3.25,1.96709 -3.25,2.48828 0,1.55392 -4.08951,4.8888 -8.77344,7.15625 -2.41307,1.16814 -4.62454,2.74162 -4.91406,3.4961 -0.28952,0.75448 -1.04126,1.38895 -1.66992,1.41015 -0.62865,0.0212 -2.0527,1.4837 -3.16407,3.25001 -2.78359,4.42403 -7.3207,4.53132 -9.38671,0.2207 -0.78871,-1.64558 -2.01306,-3.57361 -2.72266,-4.28321 -3.2213,-3.22129 -2.40031,-12.22461 1.11523,-12.22461 0.77832,0 1.77502,-0.60995 2.21485,-1.35351 0.43983,-0.74356 2.56406,-3.399037 4.71875,-5.902346 3.01484,-3.502622 4.4551,-4.454387 6.25,-4.128907 1.35382,0.2455 2.33203,-0.0678 2.33203,-0.746093 0,-1.435722 6.49893,-7.869141 7.94922,-7.869141 0.57726,0 1.05078,-0.45 1.05078,-1 0,-0.55 0.85143,-1 1.89258,-1 1.04116,0 2.15217,-0.675 2.46875,-1.5 0.36128,-0.94149 1.8909,-1.5 4.10742,-1.5 2.47234,0 3.53125,-0.44984 3.53125,-1.5 0,-0.89142 0.91695,-1.5 2.26172,-1.5 1.38754,0 2.64472,-0.87036 3.25,-2.25 0.72028,-1.64175 1.7317,-2.194965 3.73828,-2.046875 1.5125,0.11162 2.75,-0.22588 2.75,-0.75 0,-0.52412 1.07643,-0.953125 2.39258,-0.953125 1.31616,0 2.65002,-0.671778 2.96484,-1.492188 0.31482,-0.82041 1.6009,-1.461528 2.85742,-1.423828 1.25652,0.0377 3.96132,-0.366797 6.01172,-0.898437 0.74767,-0.19385 1.59744,-0.294368 2.48828,-0.316406 z m -0.52734,2.630859 c -1.26728,0.03887 -2.33639,0.445935 -2.62695,1.203125 -0.27354,0.71284 -1.8359,1.296875 -3.47071,1.296875 -1.6348,0 -3.23742,0.429098 -3.5625,0.955078 -0.32507,0.52598 -1.25316,0.704361 -2.06054,0.394531 -0.80739,-0.30982 -1.4668,-0.115626 -1.4668,0.433594 0,0.54922 -1.16189,1.290064 -2.58203,1.646484 -1.42014,0.35644 -3.61986,1.853352 -4.88672,3.326172 -1.982,2.3042 -2.52871,2.490871 -3.91797,1.337891 -1.37322,-1.13967 -1.61328,-1.096737 -1.61328,0.283203 0,1.06394 -0.86059,1.623047 -2.5,1.623047 -1.375,0 -2.5,0.45 -2.5,1 0,0.55 -0.62642,1 -1.39258,1 -0.76615,0 -1.62749,0.610622 -1.91406,1.357422 -0.28657,0.74679 -1.85327,1.623778 -3.48047,1.949219 -3.02293,0.604579 -8.45579,5.274349 -9.59766,8.25 -0.43745,1.139979 -1.34418,1.476041 -2.91406,1.082031 -1.70028,-0.42674 -2.7766,0.104913 -4.24023,2.089843 -1.07896,1.463251 -3.87344,4.533802 -6.21094,6.824222 -4.25033,4.16472 -5.64438,8.44726 -2.75,8.44726 0.825,0 1.5,0.46358 1.5,1.03125 0,0.56766 0.68399,2.66824 1.51953,4.66798 l 1.51758,3.63671 1.98242,-2.12695 c 1.08946,-1.16939 1.98047,-2.51258 1.98047,-2.98438 0,-1.6416 7.03635,-7.07392 10.00781,-7.72656 1.64515,-0.36133 2.99219,-1.04248 2.99219,-1.51172 0,-0.46923 0.89933,-1.13761 1.99805,-1.48633 1.09872,-0.34872 2.26199,-1.68979 2.58593,-2.98047 0.3447,-1.37339 1.58956,-2.598631 3.00196,-2.953121 1.32734,-0.33314 2.41406,-1.046417 2.41406,-1.585937 0,-0.539521 0.64202,-0.980469 1.42773,-0.980469 0.78572,0 2.02322,-0.5625 2.75,-1.25 2.48226,-2.34808 6.68771,-4.019346 8.75586,-3.478516 1.4096,0.36862 2.06641,0.06462 2.06641,-0.958984 0,-0.825 0.9,-1.735778 2,-2.023438 1.1,-0.28765 2,-0.870283 2,-1.294921 0,-0.42465 1.54446,-1.061616 3.43359,-1.416016 2.53709,-0.47596 3.51716,-1.223808 3.75,-2.861328 0.51383,-3.61379 5.55981,-3.48644 9.62696,0.24414 1.82145,1.6707 3.90458,3.039063 4.6289,3.039063 0.72433,0 1.87709,1.35 2.56055,3 0.68345,1.65 1.75031,3.036201 2.37109,3.082031 4.51327,0.33323 6.07487,0.755862 6.40039,1.732422 0.20548,0.61643 1.91581,1.410042 3.80078,1.763672 1.88497,0.35362 3.42774,1.013113 3.42774,1.464844 0,0.45173 1.0125,1.137137 2.25,1.523437 1.2375,0.3863 3.32422,1.767611 4.63672,3.068361 1.3125,1.30076 3.23899,2.36523 4.28125,2.36523 1.04226,0 2.15412,0.675 2.4707,1.5 0.31659,0.825 1.18678,1.5 1.93359,1.5 0.7468,0 1.83904,0.9 2.42774,2 0.5887,1.1 1.95451,2 3.03515,2 1.08066,0 1.96485,0.45 1.96485,1 0,0.55 0.94226,1 2.09375,1 1.25262,0 2.30231,0.8034 2.61523,2 0.32127,1.22855 1.36386,2.00001 2.70313,2.00001 1.19916,0 3.28556,1.33031 4.63476,2.95703 3.42134,4.12506 8.97994,4.27301 11.03125,0.29297 0.77954,-1.51251 1.98153,-3.11095 2.66993,-3.55078 2.15253,-1.3753 1.3712,-3.63289 -1.49805,-4.32813 -1.51251,-0.36649 -4.40488,-2.38588 -6.42774,-4.48633 -2.02284,-2.10046 -3.8504,-3.3023 -4.06054,-2.67188 -0.76351,2.29055 -3.66793,-0.19829 -4.32617,-3.70703 -0.62264,-3.318928 -0.80897,-3.478802 -2.38477,-2.05273 -2.22143,2.01032 -5.05078,1.98422 -5.05078,-0.0469 0,-0.876482 -0.9,-1.82953 -2,-2.11719 -1.1,-0.28765 -2,-0.92039 -2,-1.40625 0,-0.48585 -0.48814,-0.882812 -1.08399,-0.882812 -0.59585,0 -2.61299,-1.575 -4.48242,-3.5 -1.86943,-1.925 -3.75588,-3.5 -4.19336,-3.5 -0.43749,0 -1.56596,-0.9 -2.50781,-2 -1.08969,-1.27267 -2.94992,-2 -5.11523,-2 -2.10223,0 -3.62292,-0.57332 -3.97852,-1.5 -0.31658,-0.825 -1.47436,-1.5 -2.57226,-1.5 -1.09793,0 -2.47917,-0.901053 -3.06836,-2.001953 -0.58918,-1.10091 -2.63,-2.653189 -4.53516,-3.449219 -1.90516,-0.79603 -3.46289,-1.868893 -3.46289,-2.382813 0,-0.51391 -0.7875,-1.218476 -1.75,-1.566406 -1.64973,-0.59637 -3.80481,-1.81288 -7.25,-4.09375 -1.08019,-0.71514 -2.54522,-1.044739 -3.8125,-1.005859 z M 38.4414,117.21875 c 2.14984,-0.0196 3.98196,0.17364 4.86914,0.64844 1.89306,1.01314 2.35799,3.26896 0.96289,4.66406 -0.83701,0.83701 0.26371,7.63336 1.48828,9.18946 0.65703,0.83491 0.59275,1.72231 -0.19531,2.67187 -1.3521,1.62919 0.50092,5.57813 2.61719,5.57813 2.15623,0 2.55203,2.08309 0.76953,4.05273 -1.40357,1.55092 -1.55807,2.5666 -0.78906,5.1875 1.01365,3.45465 -0.19883,10.75977 -1.78516,10.75977 -1.65646,0 -0.87657,2.6895 1.6211,5.59375 2.56145,2.97842 3.38582,7.40625 1.3789,7.40625 -0.77551,0 -0.73705,0.46364 0.12305,1.5 0.9947,1.19859 0.98772,1.80855 -0.0352,3.04101 -0.96957,1.16826 -0.99987,1.82436 -0.12304,2.70117 1.58733,1.58734 1.45635,5.26546 -0.23829,6.67188 -1.39223,1.15545 -1.12549,4.54204 0.52735,6.67383 0.83496,1.07692 0.92304,2.31655 0.96484,13.83594 0.0118,3.25873 0.45828,6.74481 0.99414,7.74609 0.56983,1.06473 0.69868,5.24651 0.31055,10.07422 -0.36499,4.53998 -0.71575,9.79151 -0.78125,11.66992 -0.0723,2.07284 -0.70875,3.60624 -1.61914,3.90039 -0.825,0.26656 -1.725,0.79974 -2,1.18359 -0.275,0.38385 -3.55809,0.97615 -7.29492,1.31641 -5.85325,0.53298 -6.88287,0.37916 -7.4375,-1.09961 -0.35409,-0.94408 -1.32965,-2.22943 -2.16797,-2.85742 -1.26219,-0.9455 -1.30033,-1.41086 -0.22461,-2.70703 1.07481,-1.29506 1.02382,-1.95568 -0.28906,-3.83008 -2.20371,-3.14623 -2.10173,-10.42052 0.16406,-11.74024 0.9625,-0.56061 1.25249,-1.03408 0.64453,-1.05078 -0.9915,-0.0273 -1.42071,-2.52317 -3.00586,-17.52929 -0.23239,-2.2 -0.8652,-4.15066 -1.40625,-4.33399 -1.62088,-0.54923 -1.15818,-5.16601 0.51758,-5.16601 1.84331,0 1.90967,-2.05453 1.0625,-32.71289 -0.0488,-1.76712 -0.64579,-3.77081 -1.32617,-4.45118 -1.41887,-1.41886 -1.70241,-10.83593 -0.32618,-10.83593 0.97539,0 0.93013,-1.85864 -0.0859,-3.5 -1.32414,-2.13917 -1.35007,-20.16283 -0.0312,-21.75196 1.14665,-1.38163 7.41685,-2.4568 12.14648,-2.5 z m -2.18945,2.75196 c -3.16769,-3.8e-4 -5.75,0.44909 -5.75,1 0,0.55 -0.675,1 -1.5,1 -0.825,0 -1.5,0.675 -1.5,1.5 0,0.825 0.45,1.5 1,1.5 0.55,0 1,1.8 1,4 0,2.52517 -0.46088,4.00367 -1.25,4.01367 -0.90572,0.0111 -0.9354,0.21767 -0.10547,0.75 0.7319,0.46947 1.14644,4.26517 1.14844,10.51172 0.002,5.37657 0.3873,10.32657 0.85547,11 0.46817,0.67344 0.85156,8.75354 0.85156,17.95703 0,12.46157 0.31912,16.85757 1.25,17.21875 2.44957,0.95041 1.28337,3.59137 -1.86328,4.2207 -2.32248,0.4645 -2.73579,0.83283 -1.63086,1.45117 0.97511,0.54571 1.72527,3.31117 2.19726,8.10157 0.39419,4.00067 1.17943,7.83121 1.74414,8.51172 0.56471,0.68049 0.74848,1.9582 0.41016,2.83984 -0.33831,0.88163 -0.28899,2.12581 0.10938,2.76367 1.33924,2.14437 1.28129,4.66016 -0.10743,4.66016 -2.12323,0 -2.80401,5.25409 -0.87304,6.73633 0.90703,0.69623 1.645,2.77417 1.6875,4.74804 0.0415,1.93008 0.41367,3.50972 0.82617,3.51172 0.4125,0.002 0.75,0.67891 0.75,1.50391 0,1.69924 4.50568,2.10885 5.5,0.5 0.33992,-0.55 2.10182,-1 3.91601,-1 h 3.29883 l 0.64258,-6.14649 c 1.0829,-10.36067 0.78876,-16.4873 -0.85742,-17.85351 -1.81385,-1.50536 -2.00039,-5.99423 -0.25,-6.01563 0.89278,-0.0109 0.85113,-0.26871 -0.14649,-0.90039 -0.98593,-0.62428 -1.4272,-3.19322 -1.5,-8.73437 -0.0568,-4.31764 -0.52191,-8.15102 -1.0332,-8.51954 -1.48861,-1.07292 -1.53338,-3.90731 -0.0703,-4.46874 0.96693,-0.37105 1.35005,-2.79888 1.37305,-8.68946 0.0367,-9.39975 -0.43885,-11.67187 -2.44141,-11.67187 -1.00471,0 -1.43164,-1.19473 -1.43164,-4 0,-2.2 0.46352,-4 1.03125,-4 1.86339,0 2.65219,-4.24135 1.73047,-9.3125 -0.69483,-3.82288 -0.5986,-5.17261 0.41601,-5.80469 0.91845,-0.57219 0.35619,-1.01792 -1.84179,-1.46094 -2.89485,-0.58348 -3.12005,-0.90585 -2.65821,-3.78125 0.27758,-1.72826 0.57471,-6.40397 0.66211,-10.39062 l 0.16016,-7.24805 z m 76.26562,1.56445 c 5.54513,0.0388 7.11157,0.43338 8.47266,1.78906 1.51637,1.51034 1.64508,2.20299 0.6875,3.73633 -1.5781,2.52694 -1.51819,2.71981 0.98242,3.08984 2.54704,0.37691 3.31655,3.45556 1.16406,4.66016 -0.8256,0.46202 -1.46141,1.13695 -1.41211,1.5 0.28003,2.063 -0.0876,2.66566 -1.66015,2.72266 -1.34081,0.0486 -1.2239,0.27583 0.5,0.96875 2.60016,1.04514 3.08102,5.34753 0.88281,7.88867 -2.25837,2.61068 -2.86205,6.85251 -1.11523,7.83008 1.19401,0.6682 1.67046,3.6973 2.16797,13.80273 0.58715,11.92631 0.60955,14.88995 0.17968,22.71094 -0.0835,1.51989 0.58863,3.5797 1.49219,4.57812 2.02913,2.24217 2.06815,4.10498 0.16797,7.76758 -1.29758,2.50108 -1.29758,2.9379 0,3.66406 1.88661,1.05591 1.88365,3.80622 -0.008,6.28516 -1.09463,1.43489 -1.32483,3.40605 -0.88477,7.56055 0.36892,3.48294 0.19674,5.8679 -0.45312,6.26953 -0.57673,0.35645 -0.81083,2.11694 -0.51954,3.91211 0.43969,2.70949 -0.0591,3.92382 -2.93554,7.15625 -3.19967,3.59571 -3.91546,3.91446 -9.3457,4.16211 -3.23431,0.14749 -6.94972,-0.16365 -8.25782,-0.69141 -2.04765,-0.82613 -2.29936,-1.44318 -1.8125,-4.44336 0.48278,-2.97499 0.28267,-3.48437 -1.37109,-3.48437 -1.39961,0 -1.9375,-0.69371 -1.9375,-2.5 0,-1.45455 0.575,-2.5 1.375,-2.5 1.61319,0 2.625,-4.28817 2.625,-11.125 0,-2.68125 0.45,-4.875 1,-4.875 1.34757,0 1.30402,-13.73199 -0.0449,-14.18164 -0.57398,-0.19132 -1.06234,-2.36698 -1.08594,-4.83399 -0.0555,-5.81224 -1.74874,-12.63934 -3.49414,-14.08789 -1.92931,-1.60119 -1.71289,-5.58464 0.375,-6.90625 1.25321,-0.79327 1.39515,-1.25664 0.5,-1.63281 -1.6906,-0.71045 -1.59061,-4.29149 0.13867,-4.95508 1.68142,-0.64522 0.98133,-4.04693 -0.98828,-4.80273 -2.31496,-0.88834 -1.71316,-5.53825 0.84961,-6.56836 1.7239,-0.69292 1.84081,-0.92015 0.5,-0.96875 -1.9172,-0.0694 -2.53539,-4.0625 -0.62891,-4.0625 0.76935,0 0.72722,-0.47854 -0.13672,-1.51953 -1.02181,-1.23121 -0.98372,-1.84653 0.20118,-3.25 1.52171,-1.80238 1.35115,-5.23047 -0.25977,-5.23047 -1.4779,0 -1.07082,-3.99949 0.57422,-5.64453 1.92821,-1.92821 1.92821,-4.97882 0,-5.71875 -1.97044,-0.75612 -1.92557,-5.03887 0.0703,-6.69532 1.02565,-0.85121 4.77879,-1.32804 10.81445,-1.37304 0.9655,-0.007 1.83869,-0.01 2.63086,-0.004 z m -2.55859,2.43555 c -8.74497,0 -11.18052,1.2765 -8.17188,4.28515 1.4497,1.44969 1.75102,2.67328 1.24219,5.0625 -0.36908,1.73307 -0.75181,6.86313 -0.84961,11.40039 -0.13418,6.22176 0.14361,8.24967 1.13086,8.25 0.7199,2.4e-4 1.03133,0.45196 0.69141,1.00196 -0.33992,0.55 -0.14105,1 0.44141,1 2.13475,0 0.9742,1.59228 -1.96876,2.70312 l -3.02539,1.14258 2.02539,3.60742 c 2.19754,3.9125 2.6116,6.54688 1.02735,6.54688 -0.55,0 -1,1.76184 -1,3.91601 0,2.23347 -0.53719,4.10419 -1.25,4.35352 -0.91622,0.32048 -0.78271,0.9646 0.5,2.41211 0.9625,1.08616 1.75,2.89659 1.75,4.02343 0,1.12684 0.675,2.61024 1.5,3.29493 1.818,1.5088 1.98435,5.67017 0.25,6.2539 -0.95267,0.32063 -0.89369,0.85186 0.24805,2.23438 1.88972,2.28823 2.02718,23.66933 0.15625,24.29297 -0.68149,0.22716 -1.1543,2.58047 -1.1543,5.74218 0,2.9467 -0.47349,5.64908 -1.05078,6.00586 -0.64917,0.40121 -0.26765,1.32831 1,2.42774 1.12729,0.97769 2.05078,2.96216 2.05078,4.41015 0,2.45358 0.30618,2.63282 4.5,2.63282 2.475,0 4.5,-0.45 4.5,-1 0,-0.55 0.64371,-1 1.43164,-1 0.78794,0 1.71923,-0.9 2.06836,-2 0.34913,-1.1 1.05346,-2 1.56641,-2 0.51292,0 0.93359,-1.72566 0.93359,-3.83399 0,-2.10834 0.3071,-4.1411 0.68359,-4.51758 1.02332,-1.02335 1.00751,-16.05046 -0.0176,-16.77539 -0.99458,-0.70333 1.25935,-7.96292 2.82813,-9.10937 0.55293,-0.40408 -0.68164,-0.742 -2.74414,-0.75 -3.07827,-0.0126 -3.75,-0.37195 -3.75,-2.01367 0,-1.3984 0.6768,-2.00995 2.25,-2.03125 2.0094,-0.0272 2.06287,-0.13854 0.5,-1.04883 -2.30397,-1.34194 -2.22295,-4.49711 0.18164,-7.07813 1.5405,-1.65353 1.73446,-2.59117 0.95898,-4.63086 -0.53479,-1.40658 -0.74307,-3.15461 -0.46289,-3.88476 0.2809,-0.73202 -0.14918,-1.32617 -0.95898,-1.32617 -1.94384,0 -1.92103,-4.37977 0.0312,-6 1.9152,-1.58947 1.88899,-2.46842 -0.13477,-4.49219 -1.2755,-1.2755 -1.4024,-2.11654 -0.57812,-3.82227 1.39303,-2.88268 1.19882,-5.47666 -0.45508,-6.11132 -2.11505,-0.81162 -1.77591,-10.2267 0.41211,-11.45118 1.61799,-0.90547 1.58194,-1.1491 -0.5,-3.36523 -2.7888,-2.96854 -2.83093,-4.37561 -0.16797,-5.80078 1.14266,-0.61153 1.84381,-1.7243 1.55664,-2.47266 -0.28766,-0.74962 0.2383,-1.56057 1.17188,-1.80664 1.24616,-0.32846 1.11677,-0.4772 -0.48828,-0.5625 -1.96908,-0.10465 -3.62873,-2.54995 -3.23243,-4.76172 0.53385,-2.97949 -0.31761,-3.35351 -7.62695,-3.35351 z M 38.625,218.07422 c 1.59926,0.0694 3.00163,1.02061 2.63086,2.14649 -0.6238,1.89415 -4.40883,2.08929 -5.10938,0.26367 -0.35795,-0.9328 0.001,-1.82642 0.87109,-2.16016 0.51815,-0.1988 1.07434,-0.2731 1.60743,-0.25 z"
     id="rect875"
     inkscape:connector-curvature="0" />
</svg>
